<?xml version="1.0" encoding="utf-8"?>
<!-- Generator: Adobe Illustrator 24.3.0, SVG Export Plug-In . SVG Version: 6.00 Build 0)  -->
<svg version="1.1" id="Layer_1" xmlns="http://www.w3.org/2000/svg" xmlns:xlink="http://www.w3.org/1999/xlink" x="0px" y="0px"
	 viewBox="0 0 45 45" style="enable-background:new 0 0 45 45;" xml:space="preserve">
<style type="text/css">
	.st0{fill:none;stroke-linecap:round;stroke-miterlimit:10;}
	.st1{fill:none;stroke-linecap:round;stroke-linejoin:round;}
</style>
<g id="judges" transform="translate(-761.569 -597.918)">
	<path id="Path_1192" class="st0" d="M790.1,633.1v-10.7c0-1.4-1.2-2.6-2.6-2.6h-7.2c-1.4,0-2.6,1.2-2.6,2.6v10.7"/>
	<circle id="Ellipse_27" class="st1" cx="783.9" cy="612.9" r="4.7"/>
	<path id="Path_1193" class="st0" d="M776.4,620.2h-5c-1,0-1.8,0.8-1.8,1.8c0,0,0,0,0,0v7.4"/>
	<circle id="Ellipse_28" class="st1" cx="774" cy="615.4" r="3.3"/>
	<path id="Path_1194" class="st0" d="M798.5,629.4V622c0-1-0.8-1.8-1.8-1.8c0,0,0,0,0,0h-5"/>
	<circle id="Ellipse_29" class="st1" cx="794.2" cy="615.4" r="3.3"/>
</g>
</svg>
