<?xml version="1.0" encoding="utf-8"?>
<!-- Generator: Adobe Illustrator 24.3.0, SVG Export Plug-In . SVG Version: 6.00 Build 0)  -->
<svg version="1.1" id="Layer_1" xmlns="http://www.w3.org/2000/svg" xmlns:xlink="http://www.w3.org/1999/xlink" x="0px" y="0px"
	 viewBox="0 0 30 30" style="enable-background:new 0 0 30 30;" xml:space="preserve">
<g id="Icon" transform="translate(-242.783 0)">
	<g id="Group_12">
		<path id="Path_50" d="M257.8,2.5L257.8,2.5c-6.9,0-12.5,5.6-12.6,12.5c0,1.7,0.3,3.3,1,4.9c1.3,3,3.7,5.4,6.7,6.7
			c1.5,0.7,3.2,1,4.9,1l0,0c6.9,0,12.5-5.6,12.5-12.5C270.3,8.1,264.7,2.5,257.8,2.5C257.8,2.5,257.8,2.5,257.8,2.5L257.8,2.5z
			 M255.4,4.2c-1.2,1.2-2.3,2.6-3,4.1h-3.4C250.5,6.3,252.8,4.8,255.4,4.2z M248,9.8h3.7c-0.5,1.4-0.8,2.9-0.9,4.4h-4.1
			C246.8,12.7,247.3,11.2,248,9.8L248,9.8z M248,20.2c-0.7-1.4-1.2-2.9-1.3-4.5h4.1c0.1,1.5,0.4,3,0.9,4.5H248z M249,21.6h3.4
			c0.8,1.5,1.8,2.9,3,4.1C252.8,25.2,250.5,23.7,249,21.6L249,21.6z M252.3,15.7h4.8v4.5h-3.8C252.7,18.7,252.4,17.2,252.3,15.7
			L252.3,15.7z M257.1,25.3c-1.2-1-2.3-2.3-3.1-3.7h3.1L257.1,25.3z M257.1,14.2h-4.8c0.1-1.5,0.4-3,1-4.4h3.8L257.1,14.2z
			 M257.1,8.4H254c0.8-1.4,1.8-2.6,3.1-3.7L257.1,8.4z M267.5,9.8c0.7,1.4,1.1,2.9,1.2,4.4h-4c-0.1-1.5-0.4-3-0.9-4.4H267.5z
			 M266.6,8.4h-3.3c-0.8-1.5-1.8-2.9-3-4.1C262.8,4.8,265,6.3,266.6,8.4L266.6,8.4z M258.5,4.7c1.2,1,2.3,2.3,3.1,3.7h-3.1V4.7z
			 M258.5,9.8h3.8c0.6,1.4,0.9,2.9,1,4.4h-4.8V9.8z M263.3,15.7c-0.1,1.5-0.4,3.1-1,4.5h-3.8v-4.5H263.3z M258.5,25.3v-3.7h3.1
			C260.8,23,259.8,24.3,258.5,25.3L258.5,25.3z M260.2,25.8c1.2-1.2,2.3-2.6,3-4.1h3.3C265,23.7,262.8,25.2,260.2,25.8L260.2,25.8z
			 M263.9,20.2c0.5-1.4,0.8-3,0.9-4.5h4c-0.1,1.6-0.5,3.1-1.3,4.5H263.9z"/>
	</g>
</g>
</svg>
