<?xml version="1.0" encoding="utf-8"?>
<!-- Generator: Adobe Illustrator 24.3.0, SVG Export Plug-In . SVG Version: 6.00 Build 0)  -->
<svg version="1.1" id="Layer_1" xmlns="http://www.w3.org/2000/svg" xmlns:xlink="http://www.w3.org/1999/xlink" x="0px" y="0px"
	 viewBox="0 0 30 30" style="enable-background:new 0 0 30 30;" xml:space="preserve">
<path id="Path_47" d="M25.8,13.5c0-4.8-4.9-8.8-10.8-8.8s-10.8,4-10.8,8.8c0,4.3,3.8,8,9,8.6c0.4,0,0.7,0.2,1,0.5
	c0.1,0.3,0.1,0.6,0.1,1c0,0-0.1,0.8-0.2,0.9c-0.1,0.3-0.2,1.1,0.9,0.6c3.1-1.6,6-3.7,8.5-6.3l0,0C24.9,17.4,25.7,15.5,25.8,13.5z
	 M10.6,16.8H8.5c-0.3,0-0.6-0.3-0.6-0.6v-4.3c0-0.3,0.3-0.6,0.6-0.5c0.3,0,0.5,0.2,0.5,0.5l0,0v3.7h1.6c0.3,0,0.6,0.3,0.5,0.6
	C11.1,16.5,10.9,16.8,10.6,16.8L10.6,16.8z M12.8,16.2c0,0.3-0.3,0.6-0.6,0.6s-0.6-0.3-0.6-0.6l0,0v-4.3c0-0.3,0.3-0.6,0.6-0.6
	s0.6,0.3,0.6,0.6V16.2z M17.9,16.2c0,0.2-0.2,0.5-0.4,0.5c-0.1,0-0.1,0.1-0.2,0.1c-0.2,0-0.3-0.1-0.5-0.2l-2.2-3v2.7
	c0,0.3-0.3,0.6-0.6,0.6s-0.6-0.3-0.6-0.6v-4.4c0-0.2,0.2-0.5,0.4-0.5c0.1,0,0.1-0.1,0.2-0.1c0.2,0,0.3,0.1,0.5,0.2l2.2,3v-2.6
	c0-0.3,0.3-0.6,0.6-0.6s0.6,0.3,0.6,0.6L17.9,16.2z M21.4,13.5c0.3,0,0.6,0.3,0.5,0.6c0,0.3-0.2,0.5-0.5,0.5h-1.6v1h1.6
	c0.3,0,0.6,0.3,0.5,0.6c0,0.3-0.2,0.5-0.5,0.5h-2.2c-0.3,0-0.6-0.3-0.6-0.6v-2.2l0,0v-2.2c0-0.3,0.3-0.6,0.6-0.6h2.2
	c0.3,0,0.6,0.3,0.5,0.6c0,0.3-0.2,0.5-0.5,0.5h-1.6v1H21.4z"/>
</svg>
