<?xml version="1.0" encoding="utf-8"?>
<!-- Generator: Adobe Illustrator 24.3.0, SVG Export Plug-In . SVG Version: 6.00 Build 0)  -->
<svg version="1.1" id="Layer_1" xmlns="http://www.w3.org/2000/svg" xmlns:xlink="http://www.w3.org/1999/xlink" x="0px" y="0px"
	 viewBox="0 0 30 30" style="enable-background:new 0 0 30 30;" xml:space="preserve">
<g id="Group_1058" transform="translate(-158.821 -1.766)">
	<g id="Group_1057">
		<rect id="Rectangle_727" x="163.7" y="13.2" width="4.4" height="14.1"/>
		<path id="Path_1201" d="M165.8,11.4c1.4,0,2.6-1.1,2.6-2.6s-1.1-2.6-2.6-2.6s-2.6,1.1-2.6,2.6c0,0,0,0,0,0v0
			C163.3,10.2,164.4,11.4,165.8,11.4C165.8,11.4,165.8,11.4,165.8,11.4L165.8,11.4z"/>
	</g>
	<path id="Path_1202" d="M175,20c0-2,0.9-3.2,2.6-3.2c1.6,0,2.4,1.1,2.4,3.2v7.4h4.3v-8.9c0-3.8-2.1-5.6-5.1-5.6
		c-1.7,0-3.3,0.9-4.2,2.3v-1.9h-4.2v14.1h4.2C175,27.3,175,22.1,175,20z"/>
</g>
</svg>
