<?xml version="1.0" encoding="utf-8"?>
<!-- Generator: Adobe Illustrator 28.0.0, SVG Export Plug-In . SVG Version: 6.00 Build 0)  -->
<svg version="1.1" id="Layer_1" xmlns="http://www.w3.org/2000/svg" xmlns:xlink="http://www.w3.org/1999/xlink" x="0px" y="0px"
	 viewBox="0 0 1120.4 920.5" style="enable-background:new 0 0 1120.4 920.5;" xml:space="preserve">
<style type="text/css">
	.st0{fill:none;stroke:#00FA9A;stroke-width:0.3;stroke-miterlimit:10;}
</style>
<g id="Layer_1_00000091010243123493808220000001540429491928405157_">
	<path class="st0" d="M783,826.4c-1.8-1.5-4-2.5-6.3-2.8c-0.6,0-1.1,0-1.7,0.2c-0.8,0.2-1.6,0.7-2.4,1.3c-2.6,2.2-4,5.6-3.5,9
		c0.5,3.3,2.8,6.3,5.8,7.7c1.2,0.6,2.6,0.8,3.9,0.5c1.7-0.3,3.1-1.6,4.1-2.6c2.4-2.5,3.8-4.9,4.1-7.2C787.3,830,785.2,828,783,826.4
		L783,826.4z"/>
	<path class="st0" d="M784.4,823.9c-1.1-0.8-2.4-1.6-4-2.1v0.1v-0.1c-2.1-0.9-4.3-1.4-6.5-1.6c-2.6,0-5.2,1-7,2.9
		c-3.6,3.5-5.8,8.3-6.1,13.3c-0.3,5.5,1.5,8.5,3.1,10.1c1.2,1.2,2.7,2.1,4.4,2.5c1.5,0.4,3.8,0.8,6.3,0.1c2.7-0.7,5.2-2.3,7.5-3.8
		l1.2-0.8c1.4-0.9,2.6-1.6,3.7-2.7c2.9-2.8,2.8-6.8,2.5-9.6C789.1,828.8,787.2,825.8,784.4,823.9L784.4,823.9z"/>
	<path class="st0" d="M783.8,819.7c-1.8-1.3-3.8-2.2-6-2.7c-2.2-0.5-4-0.8-5.6-0.8h-1c-2.4,0-4.5,0.6-6.5,1.7
		c-1.3,0.8-2.6,1.7-3.7,2.8c-4.7,4.8-7.7,11-8.7,17.7c-0.7,4.4-0.7,10.4,3,14.2c1.5,1.6,3.6,2.7,6.2,3.2c2.9,0.6,6,0.5,8.7-0.3
		c3.4-1,6.6-2.8,9.8-4.6l3.7-2l0.5-0.2c1.8-0.9,3.6-1.9,5.3-3.2c4.8-4,3.3-10.8,2.6-14C790.8,826.7,787.9,822.5,783.8,819.7
		L783.8,819.7z"/>
	<path class="st0" d="M783.3,815.6c-2.4-1.7-5.2-2.8-8.1-3.3c-1.4-0.2-2.7-0.4-4-0.4c-4-0.3-8.1,0.7-11.5,2.9
		c-1.5,1-2.9,2.1-4.3,3.5c-5.7,6.2-9.6,13.8-11.3,22c-1.7,8.3-0.7,14.5,2.9,18.3c1.9,2.1,4.6,3.4,7.9,4c3.6,0.6,7.6,0.4,11.2-0.7
		c4.1-1.3,8.1-3.4,12-5.5c2-1.1,4.1-2.2,6.1-3.1l1-0.5c2.4-1,4.7-2.2,6.7-3.8c6.4-5,4-13.7,2.7-18.3
		C792.8,824.5,788.8,819.1,783.3,815.6L783.3,815.6z"/>
	<path class="st0" d="M782.7,811.4c-3-2.1-6.5-3.5-10.1-3.9l-2.5-0.2c-7.8-0.5-15.4,2.7-20.5,8.6c-6.8,7.5-11.5,16.6-13.9,26.4
		c-1,4-1.5,8.1-1.3,12.2c0.3,4.3,1.7,7.7,4,10.3c2.3,2.5,5.5,4.1,9.7,4.8c4.3,0.7,9.1,0.3,13.6-1.1c4.9-1.5,9.6-4,14.2-6.4
		c2.8-1.5,5.7-3,8.6-4.2l1.5-0.6c2.8-1.2,5.7-2.4,8.2-4.4c8-6.1,4.6-16.9,2.8-22.7C794.6,822.4,789.5,815.8,782.7,811.4L782.7,811.4
		z"/>
	<path class="st0" d="M782.2,807.3c-3.9-2.6-8-4.1-12.2-4.5l-1.3-0.1c-7-0.3-13.7,1.8-19.3,5.9c-2,1.5-3.8,3.2-5.5,5
		c-7.9,8.8-13.5,19.3-16.5,30.7c-1.4,4.7-2,9.5-1.8,14.4c0.3,5.1,1.8,9.2,4.5,12.2s6.5,4.8,11.4,5.5c5,0.7,10.7,0.2,16-1.6
		c5.6-1.8,11.1-4.6,16.3-7.3c3.6-1.8,7.4-3.8,11.1-5.3l2-0.8c3.3-1.3,6.7-2.7,9.8-5c4.1-3.1,6.1-7.6,6-13.5c-0.2-5-1.8-10-3-13.6
		C796.7,820.6,790.7,813,782.2,807.3L782.2,807.3z"/>
	<path class="st0" d="M802.2,828.8c-3.8-10.6-11-19.6-20.5-25.7c-4.2-3-9.2-4.7-14.3-5h-0.5c-8.2-0.3-16.3,2.4-22.7,7.5
		c-2.2,1.7-4.2,3.6-6.1,5.7c-8.9,10.1-15.5,22.1-19.1,35.1c-1.7,5.4-2.5,11-2.4,16.7c0.2,5.9,1.9,10.6,4.9,14
		c3.1,3.4,7.5,5.5,13.2,6.3c5.7,0.7,12.3,0,18.5-2c6.3-2.1,12.5-5.2,18.5-8.2c4.4-2.2,9-4.5,13.6-6.4l2.5-1c3.8-1.5,7.8-3,11.3-5.6
		c2.6-1.9,4.5-4.3,5.6-7.2c1-2.5,1.4-5.3,1.2-8.5C805.7,838.8,803.6,833,802.2,828.8L802.2,828.8z"/>
	<path class="st0" d="M804.7,828.3c-4.5-12.1-12.8-22.3-23.6-29.3c-4.7-3.3-10.3-5.3-16.1-5.6h-0.2c-9-0.3-17.9,2.9-25.7,9.2
		c-2.3,1.9-4.6,4-6.8,6.4c-10,11.4-17.4,24.8-21.7,39.4c-1.9,6.1-3,12.5-3,18.9c0.1,6.7,2,12,5.4,15.9c3.9,4.2,9.3,6.7,15,7.1
		c6.4,0.8,13.8-0.1,20.9-2.4c7.1-2.3,14-5.8,20.7-9.1c5.2-2.6,10.7-5.3,16.1-7.4l2.9-1.1c4.4-1.6,8.9-3.3,12.8-6.2
		c3-2.2,5.2-4.9,6.4-8.2c1.1-2.8,1.5-6,1.3-9.6C808.6,840.1,807.1,834,804.7,828.3L804.7,828.3z"/>
	<path class="st0" d="M811.1,858.6c1.2-3.1,1.7-6.8,1.4-10.8c-0.7-6.9-2.5-13.6-5.3-20l-0.1-0.2c-5.1-13.5-14.5-24.9-26.6-32.7
		c-6-3.9-11.8-6-17.7-6.2h-0.7c-5,0-9.9,0.9-14.6,2.7c-4.9,1.9-9.5,4.7-13.6,8.1c-2.6,2.1-5,4.5-7.4,7.2
		c-11,12.8-19.3,27.7-24.3,43.8c-2.5,7.9-3.7,15-3.6,21.1c0.1,7.5,2.1,13.5,5.9,17.8c3.8,4.4,9.5,7,16.7,7.8
		c7.1,0.8,15.4-0.2,23.3-2.8c7.9-2.8,15.5-6.2,22.9-10.1c6.1-3,12.3-6.1,18.6-8.5l3.4-1.3c4.9-1.8,9.9-3.6,14.4-6.8
		C807.3,865.3,809.7,862.2,811.1,858.6L811.1,858.6z"/>
	<path class="st0" d="M806.3,871.5c3.8-2.7,6.5-6.1,8-10.1c1.3-3.5,1.8-7.5,1.5-11.9c-0.9-7.7-2.9-15.1-6-22.2l-0.1-0.2
		c-5.8-14.9-16.2-27.6-29.7-36.2c-6.6-4.3-13-6.5-19.3-6.8h-1.1c-5.3,0-10.6,1.1-15.9,3.3c-8.8,4-16.5,9.8-22.8,17.1
		c-12.1,14.1-21.2,30.4-26.9,48.1c-2.6,7.5-4,15.4-4.2,23.4c-0.4,7.1,1.9,14.1,6.4,19.7c4.9,5.1,11.5,8.2,18.5,8.6
		c7.8,0.9,16.9-0.3,25.7-3.2c8.5-2.9,16.9-7,25-11c6.9-3.4,14-6.9,21.1-9.6l3.9-1.4C795.8,877,801.4,875,806.3,871.5L806.3,871.5z"
		/>
	<path class="st0" d="M787,884.8l4.5-1.6c5.9-2.1,11.9-4.2,17.3-8c4.2-2.9,7.1-6.6,8.8-11.1c1.4-3.8,2-8.2,1.6-13.1
		c-0.7-9-4.2-17.9-6.7-24.3l-0.1-0.3c-6.4-16.4-17.9-30.3-32.8-39.8c-6.2-4.4-13.5-6.9-21-7.3h-1.5c-5.7,0.1-11.5,1.4-17.3,3.9
		c-5.8,2.6-11.2,6.1-16,10.3c-3,2.6-5.9,5.5-8.6,8.6c-13.2,15.4-23.2,33.2-29.4,52.5c-3,8.2-4.6,16.9-4.8,25.6
		c-0.5,7.8,2,15.5,6.9,21.6c5.3,5.6,12.5,8.9,20.2,9.3c8.5,0.9,18.5-0.4,28.2-3.7c9.2-3.1,18.3-7.6,27.1-11.9
		C770.9,891.7,778.9,887.8,787,884.8z"/>
	<path class="st0" d="M761.1,901.1c8.5-4.2,17.4-8.5,26.2-11.7l4.9-1.8c6.7-2,13-4.9,18.9-8.7c4.5-3.2,7.8-7.2,9.6-12.1
		c1.6-4.1,2.1-8.9,1.7-14.3c-0.8-9.8-4.7-19.4-7.5-26.5l-0.1-0.4c-7.1-17.8-19.7-33-35.9-43.3c-4-2.6-7.7-4.4-11.4-5.7
		c-3.8-1.3-7.4-2-11.1-2.2h-2c-6.4,0.2-12.8,1.7-18.6,4.5c-10.1,5-19.1,12.1-26.4,20.8c-14.2,16.7-25.1,36-32,56.8
		c-3.2,8.9-5,18.3-5.4,27.8c-0.5,8.5,2.1,16.8,7.3,23.5c5,5.7,12.4,9.1,22,10.1c9.2,0.9,20-0.5,30.6-4.1
		C741.8,910.5,751.6,905.7,761.1,901.1L761.1,901.1z"/>
	<path class="st0" d="M681.2,921.5c-3.9-1.7-7.4-4.3-10.3-7.5v0c-12.3-14.2-7.8-37.9-1.8-55.3c7.6-22.4,19.4-43.1,34.6-61.2
		c3.1-3.6,6.3-6.9,9.8-10.1c5.5-5,11.6-9.2,18.3-12.4c6.2-3.1,13-4.8,19.9-5.1c8.7-0.2,17.1,2.5,26.6,8.5
		c17.5,11.2,31.1,27.5,38.9,46.7l0.2,0.4c3.1,7.6,7.3,18.1,8.2,28.6c0.5,5.8-0.1,11-1.8,15.4c-2,5.3-5.6,9.9-10.3,13
		c-6.3,4.4-13.5,6.9-20.4,9.3l-5.4,1.9c-9.7,3.5-19.4,8.2-28.7,12.8c-10.2,5-20.8,10.1-31.5,13.8l-3.6,1.2"/>
	<path class="st0" d="M663.7,921.5l-1.3-1.3v0c-13.2-15.2-8.2-40.7-1.7-59.5c8.4-23.9,21-46.1,37.2-65.5c3.4-3.9,6.9-7.6,10.5-10.8
		c16.8-15.3,31.5-18.9,40.7-19.2c9.3-0.3,18.4,2.6,28.6,9.1c18.9,12,33.5,29.5,41.9,50.2l0.2,0.5c6.5,15.9,18.6,45.6-4,61.3
		c-6.8,4.3-14.2,7.7-22,9.9l-5.8,2c-10.5,3.8-21,8.9-31.2,13.9c-6.6,3.2-13.3,6.5-20,9.4"/>
	<path class="st0" d="M650.6,921.4c-9.7-16.4-4.6-40.5,1.8-58.7v0c4.4-12.6,10-24.8,16.4-36.3c6.7-11.9,14.5-23.2,23.4-33.6
		c3.6-4.2,7.3-8.1,11.1-11.5c18-16.5,33.5-20.5,43.3-20.9c9.9-0.4,19.7,2.7,30.7,9.7c20.2,12.8,35.9,31.6,45,53.8l0.2,0.5
		c7,17.1,20.2,48.8-4.1,65.6c-7.3,4.6-15.2,8.1-23.5,10.5l-6.3,2.2c-11.4,4.1-22.7,9.6-33.6,14.9l-7.9,3.8"/>
	<path class="st0" d="M639,921.5c-6.2-17.1-1.1-39.5,5-56.7v0c9.6-27,24-52.2,42.4-74.2c3.7-4.3,7.6-8.4,11.7-12.3
		c19.2-17.8,35.5-22.1,45.8-22.5c10.6-0.5,21,2.8,32.7,10.2c21.5,13.7,38.3,33.7,48.1,57.3l0.3,0.7c3.9,9.3,9.2,22.1,10.4,35
		c0.7,7.1,0,13.4-2.1,18.9c-2.4,6.5-6.9,12-12.7,15.8c-7.8,5.4-16.6,8.3-25.1,11.2l-6.7,2.3c-11,3.9-22,9.1-32.6,14.2"/>
	<path class="st0" d="M767.3,921.5c7.3-3.4,14.8-6.6,22.2-9.2l7.2-2.4c9.1-3,18.5-6.2,26.8-11.9c27.9-19.2,12.8-55.3,4.7-74.8
		l-0.3-0.8c-10.5-25.1-28.4-46.4-51.4-61c-9.2-6.4-19.9-10.1-31-10.9h-4.1c-19.8,1-37.4,13.8-48.7,24.4c-4.2,3.9-8.3,8.3-12.4,13
		c-19.6,23.4-34.8,50-45.1,78.7c-6,16.6-11,37.5-7.1,54.9"/>
	<path class="st0" d="M618.7,921.4c-0.4-3.8-0.5-7.6-0.3-11.4c0.4-12.1,3.4-25.9,9-41.2c5.4-14.8,12-29.3,19.8-43
		c8-14.1,17.3-27.5,27.8-39.9c4.2-5,8.6-9.6,12.9-13.7c11.9-11.2,30.3-24.8,50.9-25.9c11.8-0.6,23.5,3,36.8,11.4
		c24.2,15.4,43.1,37.8,54.2,64.3l0.3,0.8c8.6,20.4,24.6,58.4-4.6,78.4c-8.8,5.5-18.3,9.7-28.2,12.5c-7.1,2.3-14.1,4.9-21,7.8"/>
	<path class="st0" d="M789.8,921.5l0.6-0.2l8.1-2.7c10.1-3.3,20.6-6.8,29.9-13.2c31.2-21.4,14.1-61.7,4.9-83.4l-0.3-0.8
		c-11.8-28-31.9-51.8-57.5-68.1c-8-5.1-20-11.6-34.4-12.1c-1.6-0.1-3.2,0-4.8,0.1c-21.6,1.3-41.2,15.8-53.7,27.7
		c-4.8,4.6-9.3,9.4-13.6,14.5c-21.7,26-38.7,55.6-50.3,87.4c-6.5,16.2-9.7,33.4-9.6,50.8"/>
	<path class="st0" d="M600.3,921.4l0.2-2.8l0,0c1-15.7,4.4-31.1,10.2-45.7c12.3-33.3,30.2-64.3,52.8-91.7
		c4.6-5.5,9.4-10.6,14.2-15.2c8.8-8.4,17.8-15.2,26.6-20c10-5.5,19.9-8.6,29.3-9.2c7.3-0.5,14.5,0.6,21.9,3.1c6,2.1,12.3,5.1,19,9.4
		c26.9,17.1,48,42,60.4,71.3l0.4,0.8c9.7,22.7,27.6,64.9-4.9,87.1c-8.9,6.1-18.8,9.6-28.6,12.8"/>
	<path class="st0" d="M591.7,921.4c0.6-13.6,4.2-29.3,10.6-46.5v0c6.4-17.2,14.1-33.8,23.2-49.7c9.3-16.4,20.1-31.9,32.2-46.3
		c4.8-5.7,9.8-11.1,14.8-15.9c9.2-8.9,18.6-16,27.8-21.1c9.4-5.5,19.9-8.9,30.7-9.8c7.6-0.5,15.2,0.5,23,3.2c7,2.5,13.7,5.9,20,9.9
		c28.1,17.7,50,43.6,63.4,74.8l0.4,0.8c10.2,23.8,29.2,68.1-5,91.4c-5.6,3.7-11.5,6.8-17.8,9.1"/>
	<path class="st0" d="M582.9,921.6c1.3-13.4,5-28.4,11.1-44.6l0,0c13.4-36.6,33-70.5,58-100.4c10.2-12.5,21.9-23.5,35-32.9
		c12-9.1,26.3-14.7,41.3-16.3c8-0.5,15.9,0.5,24.1,3.4c7.4,2.6,14.5,6.1,21,10.4c29.6,18.8,52.8,46.1,66.5,78.4l0.4,0.9
		c7.3,15.2,12.3,31.4,14.9,48c1,9.7,0.2,18.5-2.6,26c-3.3,8.9-9.4,16.6-17.4,21.8c-3,2-6,3.8-9.2,5.4"/>
	<path class="st0" d="M842.5,921.5c32.4-24.7,15.8-68,5.8-94l-1-2.6c-14.4-36.3-39.6-67.3-72.2-88.8c-10-6.5-19.1-11-28.1-13.7
		c-13.1-4.1-27.2-4.2-40.4-0.2c-10.5,3-20.3,8.4-28.5,15.6c-11.5,10.5-22,22-31.2,34.6c-24.1,31.7-44.9,65.8-62.2,101.7l-0.1,0.1
		l-2,4.4l-1.3,3.8l-1.1,4.3v0.2c-2.8,11.3-4.4,22.9-4.9,34.6"/>
	<path class="st0" d="M568.3,921.6c-0.1-10.8,0.5-21.9,2.1-32.6l0,0v-0.2c0.2-1.3,0.4-2.7,0.8-4.2c0.3-1.3,0.7-2.6,1.3-3.9
		c0.6-1.6,1.5-3,2.3-4.4l0.1-0.2c24.2-41.7,46.4-76.8,68-107.3l1.8-2.5c8.7-12.3,17.7-25.1,28.2-35.6c8.1-8.2,18.3-13.9,29.6-16.4
		c6.4-1.3,12.9-2,19.4-2c7.7,0,15.8,1.3,23.9,4c10.9,3.7,21.1,9,30.5,15.6c35.4,24.1,62.5,58.6,77.4,98.8l1.3,3.7
		c4.5,13,10.6,30.9,11.2,48.1c0.4,9.4-0.9,17.8-3.9,25c-2.1,5.2-5.1,10-8.9,14.1"/>
	<path class="st0" d="M864,921.5c15.8-24.8,5.6-58-1.5-81.2l-1.3-4.2c-4.5-14.5-10.8-28.4-18.9-41.3c-16.6-26.8-38.5-50-64.3-68.1
		c-11.5-8-22.4-13.8-33.2-17.6c-8.4-3-16.8-4.7-24.9-5h-1.3c-6.9-0.1-14,0.3-20.6,1.2c-11.3,1.5-23,8-31.3,17.5
		c-8.4,9.6-15.6,21-22.6,31.9l-6.3,9.9l-29.4,45.1c-14.7,22.7-29.5,45.3-44.4,67.8l-0.1,0.2c-2.9,3.8-4.4,8.4-4.4,13.1v0.3
		c-0.4,9.8-0.1,20,1,30.5"/>
	<path class="st0" d="M553.4,921.3c-2-10.1-3.2-19.7-3.7-28.4v0v-0.2c-0.3-2.8,0.1-5.7,1.3-8.3c0.8-1.8,1.9-3.3,3-4.7l0.1-0.2
		c24.1-31.8,50.9-71.7,79.6-118.6c3-4.8,5.9-10,8.7-15c5.9-10.4,12-21.1,19.1-30.4c7.9-10.2,19.5-16.7,32.3-18.2
		c6.4-0.5,13.4-0.7,20.7-0.4h0.9v-0.1v0.1c9.1,0.4,18.5,2.4,28,6c12.7,4.9,24.6,11.4,35.6,19.4c13.7,9.7,26.6,21,38.2,33.7
		c11.4,12.3,21.6,26,30.6,40.7c9.4,15.2,16.5,31.8,20.9,49.2c3.9,14.1,8.7,31.6,8.5,48.7c0,9.2-1.9,18.3-5.6,26.7"/>
	<path class="st0" d="M545.6,921.6c-3-10.6-5-19.1-6.3-26.7l0,0v-0.2c-0.2-1.2-0.4-2.4-0.3-4.2c0.1-1.4,0.6-2.9,1.2-4.3
		c0.9-1.9,2.1-3.4,3.4-4.8l0.1-0.2c15.9-18.9,30.8-38.6,44.7-59.1c14.5-21.2,28.1-42.9,40.8-65.2c3.5-6.1,6.8-12.7,10-19
		c4.9-10.3,10.5-20.3,16.7-29.9c7.7-11.1,20.1-18.1,33.6-19c7.6-0.2,15.1-0.1,22.7,0.4c9.8,0.6,19.9,3,30.1,7
		c12.6,5,25.1,12,38.1,21.4c14.9,10.8,28.6,23.1,40.9,36.7c12.3,13.6,23.2,28.4,32.6,44.2c9.6,16,16.5,32.4,20.5,48.8l0.9,3.8
		c3.5,14.3,7.9,32,7.4,49.3c-0.1,7.1-1.3,14.2-3.6,20.9"/>
	<path class="st0" d="M537.1,921.4c-3-8.7-5.9-17-8.2-24.6h0l-0.1-0.2c-0.4-1.2-0.7-2.3-0.6-4.3c0.1-1.4,0.5-2.9,1.2-4.4
		c0.9-2,2.4-3.5,3.7-5l0.2-0.2c35.7-39.3,66.4-83,91.3-129.9c3.8-7.1,7.3-14.9,10.7-22.5c4.5-10.2,9.2-20.8,14.9-30
		c7.4-12,21.5-20,35-19.9c8.2,0.1,16.5,0.7,23.8,1.3v-0.1v0.1c10.5,0.8,21.4,3.5,32.2,8c14.5,6.1,28.1,13.9,40.7,23.3
		c15.9,11.7,30.4,25,43.5,39.7c13,14.7,24.6,30.7,34.6,47.6c9.8,16.3,17,34,21.3,52.5l0.7,3c3.2,14.5,7.2,32.6,6.3,50.1
		c-0.3,5.5-1,10.6-2.2,15.4"/>
	<path class="st0" d="M528.8,921.3l-4.5-9.6v0l-5.8-12.9l-0.1-0.2c-0.5-1.1-1-2.3-0.9-4.3c0-1.5,0.4-3,1.1-4.5
		c1-2.1,2.6-3.6,4.1-5.1l0.2-0.2c39.3-39.8,72.1-85.6,97.1-135.6c4-8,7.6-16.9,11-25.6c4.1-10.4,8.3-21.1,13.5-30.5
		c7.3-12.9,21-20.9,35.9-20.8h0.4c7.2,0.3,14.5,1.1,21,1.7l3.9,0.4c11.3,1.1,22.8,4.1,34.3,9c14.3,6,28.8,14.5,43.3,25.2
		c16.9,12.6,32.3,26.9,46.2,42.7c13.6,15.5,26,32.7,36.7,51.1c11.1,19,18.5,38,22.1,56.3l0.3,1.6c2.9,14.8,6.5,33.3,5.4,51.1
		c-0.2,3.6-0.6,7-1.2,10.2"/>
	<path class="st0" d="M899.5,921.5c2.6-20.2-1-41.2-3.9-57.5c-4.1-21.3-11.9-41.7-23-60.3c-23-40-53.3-74.7-87.7-100.4
		c-14.2-10.8-29.6-20-45.9-27.3c-14-6.3-29-10-44.3-10.9c-5.6-0.7-11.9-1.5-18.1-2L675,663c-15.4-0.1-29.5,8.4-36.6,22.1
		c-4.9,9.7-8.7,20.7-12.4,31.3c-3.4,9.7-6.8,19.7-11,28.4c-25.2,53-60,100.9-102.8,141.1L512,886c-1.9,1.5-3.5,3.3-4.6,5.4
		c-0.8,1.5-1.2,3.2-1.2,4.9c0,2.3,0.7,3.5,1.4,4.6l0.1,0.2c3.6,6.2,7.6,13,11.6,20.3"/>
	<path class="st0" d="M510.9,921.4c-4.9-7.5-9.6-13.9-13.1-18.7l0,0l-0.1-0.1c-0.8-1-1.6-2.1-1.7-4.3c-0.1-1.6,0.3-3.3,1.1-4.8
		c1.1-2.3,3-3.8,4.8-5.4l0.2-0.1c23-19.7,43.6-42,61.4-66.5c18.5-25.1,34.4-52,47.4-80.4c4.3-9.5,7.7-20.5,10.9-31.1
		c3.1-11,6.9-21.7,11.3-32.2c7-14.9,22.6-23.9,39-22.6c5.5,0.6,11,1.4,16.4,2.2l10.7,1.5c12.8,1.6,25.8,5.3,38.4,11
		c16.1,7.2,32.4,17,48.4,29.1c18.4,14,35.7,30.3,51.4,48.7c15.4,18,29,37.5,40.7,58.1c6,10.5,11,21,14.8,31
		c4.3,11.2,7.3,22.2,8.9,32.9c2.6,16.6,5,34.3,3.3,51.8"/>
	<path class="st0" d="M501.5,921.5c-4.3-5.6-8.9-11.2-14.1-16.8l0,0c-1.2-1.1-2-2.7-2.1-4.4c-0.1-1.6,0.3-3.3,1.1-4.9
		c1.2-2.4,3.3-4,5.2-5.5l0.2-0.1c12.2-9.7,23.7-20.2,34.5-31.5c33.4-35.5,60.5-76.5,80.1-121.1c4.4-10.2,7.6-22.1,10.7-33.7
		c3-11.2,6.1-22.8,10.4-33.2c6.7-15.9,23.2-25.4,40.3-23.4c5.1,0.7,10.2,1.6,15.1,2.4c4.7,0.8,9.1,1.6,13,2.1v-0.1v0.1
		c13.6,1.9,27.3,5.9,40.5,12c18.1,8.4,35.2,18.8,50.9,31.1c19.8,15.2,38,32.6,54.1,51.7c16.2,19.1,30.5,39.7,42.7,61.5
		c6,10.5,11.2,21.5,15.5,32.8c4.5,11.9,7.5,23.6,9.1,34.8c2.1,14.9,3.7,30.7,2.6,46.3"/>
	<path class="st0" d="M492,921.5c-4.8-5.1-9.7-10.1-14.9-14.8l0,0c-1.1-1-2.2-2-2.5-4.4c-0.2-1.7,0.2-3.4,1.1-5
		c1.3-2.5,3.5-4.1,5.6-5.7l0.2-0.1c13-9.8,25.3-20.5,36.8-32.1c35.8-36.2,64.3-79,83.7-126.1c4.5-10.8,7.5-23.7,10.4-36.2
		c2.7-11.6,5.6-23.6,9.6-34.3c6.5-16.9,23.8-27,41.7-24.3l14.3,2.6l14.9,2.7c14.5,2.2,28.8,6.5,42.5,13c18,8.4,36,19.5,53.5,33
		c20.8,16.2,39.8,34.5,56.7,54.7c16.9,20.2,31.9,42,44.8,65c13.1,21.9,21.7,46.2,25.4,71.4c1.5,12.3,2.8,26.4,2,40.7"/>
	<path class="st0" d="M481.8,921.5c-4.8-4.5-9.9-8.8-15.1-12.8l0,0c-1.3-1-2.5-1.9-2.8-4.4c-0.2-1.7,0.2-3.5,1-5.2
		c1.4-2.5,3.7-4.2,5.9-5.8l0.2-0.2c54.1-38.1,100.1-97.8,126.2-163.9c4.5-11.5,7.2-24.6,10.1-38.6c2.5-12,5-24.4,8.8-35.5
		c3-8.6,9.1-15.9,17-20.5c7.8-4.7,17.1-6.4,26.1-4.7l13.6,2.8c6.1,1.3,11.8,2.5,16.7,3.3c15.3,2.5,30.3,7.2,44.6,14
		c18.9,9,37.8,20.7,56.1,34.9c21.8,17,41.7,36.3,59.4,57.6c17.7,21.3,33.4,44.3,46.8,68.5c19.7,33.3,29.4,71.6,27.8,110.3"/>
	<path class="st0" d="M471.2,921.5c-4.8-3.9-9.8-7.5-14.9-10.9h0c-1.4-0.9-2.8-1.8-3.2-4.4c-0.3-1.7,0.1-3.7,1-5.3
		c1.4-2.6,3.9-4.3,6.3-5.9l0.2-0.1c14.8-9.9,28.7-21,41.6-33.3c39.6-38.3,70.5-84.8,90.4-136.2c4.6-12.1,7.1-26.1,9.7-40.9
		c2.2-12.4,4.5-25.3,8.1-36.8c6-18.7,25.1-30,44.4-26.1l13.1,3c6.7,1.6,13,3.1,18.2,4c16.2,2.8,31.9,7.8,46.7,15
		c19.9,9.6,39.6,22,58.6,36.9c22.8,17.9,43.5,38.3,62,60.6c18.5,22.4,34.8,46.4,48.8,71.9c6.9,12.3,12.8,25.1,17.7,38.3
		c5,14,8.2,27.7,9.4,40.7c1,10.6,1.3,20.4,1,29.6"/>
	<path class="st0" d="M937.6,921.5c0.2-7.6,0-15.6-0.7-24c-2-25.5-10.9-51.8-28-83c-28.9-53.7-68.2-101-115.7-139.2
		c-19-15.1-39.5-28.1-61.3-38.9c-15.5-7.5-31.9-12.9-48.9-16c-5.6-1-12.4-2.8-19.6-4.6l-12.8-3.2c-20.2-4.4-40.4,7.5-46.4,27.3
		c-3.4,12-5.5,25.3-7.5,38.2c-1.7,14.6-4.8,29-9.2,43.1c-26.1,72-76.3,135.8-137.7,174.9l-0.2,0.1c-2.6,1.7-5.3,3.4-6.9,6.3
		c-1,1.8-1.4,3.8-1,5.8c0.5,3,2.2,3.9,3.8,4.8c4.6,2.6,9.1,5.4,13.5,8.4"/>
	<path class="st0" d="M448.3,921.5c-4.2-2.5-8.4-4.8-12.7-6.9h0c-1.7-0.8-3.4-1.6-3.9-4.4c-0.3-1.8,0-3.8,1-5.6
		c1.6-2.8,4.4-4.5,7.1-6.2l0.2-0.1c16.5-10.1,32-21.7,46.4-34.6c29.4-26.4,54.2-57.6,73.2-92.3c9.6-17.3,17.7-35.4,24.2-54
		c4.6-13.2,6.6-28.8,8.8-45.3c1.7-13.4,3.5-27.2,6.8-39.6c2.6-9.9,9.1-18.3,17.9-23.4c4.3-2.6,9.1-4.3,14-5.1
		c5.1-0.8,10.2-0.6,15.2,0.7l12.5,3.4c7.7,2.1,15.1,4.1,21,5.3c17.9,3.4,35,9.1,50.8,16.9c22.6,11.3,43.9,25,63.7,40.7
		c24.8,19.7,47.3,42,67.3,66.6c19.7,24,37.5,50.6,52.9,78.9c17.9,32.8,27,60.3,28.7,86.6c0.4,6.3,0.6,12.4,0.5,18.4"/>
	<path class="st0" d="M435.6,921.5c-3.4-1.8-6.8-3.5-10.4-5l0,0c-1.8-0.8-3.7-1.5-4.3-4.4c-0.4-1.9-0.1-3.9,0.9-5.7
		c1.7-2.9,4.6-4.7,7.4-6.3l0.2-0.1c17-9.9,33.4-21.8,48.7-35.2c30.8-27,56.7-59.2,76.2-95.2c9.9-18.1,18.2-37,24.6-56.1
		c4.6-13.8,6.4-30.2,8.3-47.5c1.5-13.8,3.1-28.1,6.2-41c4.1-15.5,16.9-27.1,32.7-29.7c5.3-0.8,10.5-0.5,15.7,1l12.3,3.5
		c8.2,2.4,16,4.7,22.3,5.9v-0.1v0.1c18.8,3.7,36.6,9.8,52.9,17.9c22.7,11.4,45,25.7,66.3,42.7c25.1,20,48.6,43.4,70,69.6
		c20.8,25.7,39.2,53.3,54.9,82.4c7.8,14,14.4,28.7,19.8,43.8c6.9,19,10.3,39.2,10,59.4"/>
	<path class="st0" d="M957.8,921.5l-0.2-7.3c-0.8-17.7-4.8-46.7-30.4-94.4c-32.2-61-76.3-114.9-129.7-158.6
		C776.1,644,753,629,728.6,616.5c-17.5-8.7-36-15.1-55.1-19c-6.5-1.3-14.7-3.9-23.4-6.5l-12.3-3.7c-21.5-6.1-43.9,6.4-50,28
		c-0.2,0.7-0.4,1.4-0.5,2c-3,13.4-4.3,28.1-5.6,42.4c-0.8,16.8-3.4,33.4-7.8,49.6c-13.2,40.3-33.6,77.8-60.2,110.8
		c-26.3,32.7-58.4,60.2-94.9,81l-0.2,0.1c-3.2,1.4-6,3.8-8,6.7c-1.1,1.9-1.5,4.1-1,6.2c0.8,3.3,3,4.1,4.9,4.8l6.3,2.5"/>
	<path class="st0" d="M407.8,921.6l-3.3-1.1l0,0c-2.1-0.7-4.2-1.4-5-4.4c-0.5-2-0.2-4.2,0.9-6c1.8-3.1,5.1-4.9,8.2-6.6l0.1-0.1
		c38.1-21.1,71.8-49.3,99.3-83c13.8-17,26-35.2,36.5-54.5c10.4-19.2,19-39.4,25.5-60.3c4.6-14.9,5.9-32.9,7.3-51.9
		c1.1-14.8,2.2-30,5-43.8c1.1-5.6,3.4-10.9,6.8-15.5c6.7-8.9,16.5-14.7,27.5-16.4c5.7-0.7,11.3-0.3,16.8,1.4l12.2,3.9
		c9.2,3,17.8,5.7,24.6,7.2v-0.1v0.1c19.8,4.1,39,10.8,57.1,19.9c25.3,13,49.2,28.6,71.4,46.5c27,21.7,52.3,47.1,75.2,75.6
		c22.4,27.9,42.1,57.8,59,89.3c8.4,15.2,15.5,31.1,21.3,47.5c6.1,17.9,9.4,34.4,9.9,50.5v1.7"/>
	<path class="st0" d="M391.1,921.4c-1.2-0.7-2.1-2-2.4-3.4v0c-0.5-2-0.2-4.2,0.9-6.1c1.9-3.3,5.3-5,8.6-6.8l0.1-0.1
		c19.9-10.4,38.6-22.8,55.9-37.1c52.7-43.2,91.3-101.1,111.1-166.3c4.7-15.5,5.7-34.3,6.8-54.2c0.8-15.2,1.7-30.9,4.3-45.1
		c3.2-17.5,17.4-30.9,35.1-33c5.9-0.7,11.7-0.2,17.3,1.6l12.2,4c9.6,3.2,18.7,6.3,25.7,7.8c20.5,4.4,40.4,11.5,59.1,20.9
		c26.2,13.7,51,29.9,74,48.5c27.9,22.5,54.1,49,77.9,78.6c23.1,29,43.6,60.1,61,92.8c8.7,15.8,16,32.3,22,49.3
		c5.9,17.2,9.1,33.1,9.8,48.5"/>
	<path class="st0" d="M977.8,921.5c-2.8-36.3-18.6-70.2-32.5-96.3c-35.6-68.3-84.5-128.8-143.7-178c-23.8-19.4-49.4-36.3-76.6-50.5
		c-18-9.4-38.7-16.8-61.3-22c-7.3-1.6-16.7-4.9-26.7-8.4l-12.2-4.2c-21.8-7.4-45.5,4.3-52.9,26.1c-0.7,2.1-1.3,4.3-1.6,6.6
		c-2.5,14.7-3.1,31-3.8,46.7c-0.8,20.7-1.6,40.2-6.2,56.1c-26.6,90.2-89,165.7-172.6,208.8c-3.6,1.8-7.3,3.7-9.3,7.2
		c-1.4,2.4-1.6,5.4-0.4,8"/>
	<path class="st0" d="M367.1,921.5c-0.4-2-0.1-4.1,1-5.9h0c2.1-3.5,5.8-5.3,9.4-7h0.1c86.9-43.5,151.7-121.4,178.6-214.8
		c4.6-16.6,5.2-36.9,5.7-58.4c0.1-16.1,1.2-32.1,3.2-48.1c3.4-22.8,24.7-38.4,47.5-35c2.6,0.4,5.2,1,7.6,1.9
		c4.1,1.4,8.2,2.9,12.2,4.4c10.4,3.8,20.3,7.4,27.9,9.1c11.3,2.7,22.2,5.8,32.4,9.5c10.9,3.9,21.3,8.4,30.9,13.5
		c49,26,93.3,60.1,131.1,100.8c37,39.3,69.3,85,96.2,135.8c9.3,17,17.2,34.7,23.5,53c4.9,14.5,8,28.1,9.3,41.3"/>
</g>
<g id="Layer_2_00000132774561888552062250000006542423281516321958_">
	<path class="st0" d="M26.7,521.9l1,2l0.2,0.8c0.3,1,0.6,2,1.4,2.5c0.9,0.5,1.8,0.2,2.8-0.2c0.7-0.2,1.4-0.5,2.1-0.4
		c0.5,0,1,0.2,1.5,0.4l0.6,0.2c0.5,0.2,1.5,0.4,2.2-0.1c0.6-0.5,0.7-1.4,0.7-2.2c0-1.5,0.1-3.1-0.4-4.6c-0.1-0.4-0.2-0.7-0.4-1
		c-0.3-0.8-0.6-1.6-0.6-2.5l0.1-0.5v-1c-0.2-0.8-0.9-1.4-1.7-1.5l-0.5-0.1l-1.9,0.3l-3.4,1l-2.3,0.7l-0.2,0.1
		c-1.2,0.3-2.4,0.7-2.7,2.3c-0.1,0.9,0.1,1.9,0.7,3.1C26.4,521.3,26.6,521.6,26.7,521.9z"/>
	<path class="st0" d="M21.6,522.5c0.5,1,1.1,2.1,1.5,3.2l0.3,0.8l0.3,1c0.5,1.5,0.9,3.1,1.9,4.2c1,1.2,2.2,1.7,3.6,1.8h0.2
		c1.6,0,3.4-0.7,5.1-1.4l2.5-0.9c1.1-0.4,2.2-0.4,3.4-0.5l0.8-0.1c1.4-0.1,3.1-0.3,4.5-0.8c1.2-0.4,1.9-1.1,2.6-1.8l1.3-1.7
		c0.8-1.4,1.2-2.9,1.3-4.5v-0.9l-0.1-1.5c-0.1-1.3-0.3-2.6,0.2-3.9l0.6-1.3l0.5-1c0.5-1.1,0.6-2.4,0.2-3.6c-0.2-0.7-0.5-1.4-1-2.2
		c-0.8-1.3-1.8-2.8-3.3-3.7c-0.6-0.3-1.2-0.6-1.8-0.7l-1.1-0.1c-1.6-0.1-3.2,0.4-4.9,0.9l-3.2,0.8c-3.4,0.5-6.7,1.6-9.7,3.1
		c-2.9,1.3-6.8,3.5-7.5,7.6c-0.4,2.2,0.4,4.2,1,5.6L21.6,522.5L21.6,522.5z"/>
	<path class="st0" d="M13.8,511.6c0.9-4.6,4.8-8.8,11.8-12.4c4-2.2,8.3-3.6,12.8-4.1l0.7-0.1c2.1-0.3,4.2-1,6.2-1.6
		c3.4-1,6.7-2,9.7-1.3c1,0.2,2,0.6,2.9,1.2c2.5,1.6,4,4.1,5.4,6.5c0.6,1,1.3,2.4,1.7,3.8c0.6,2.1,0.5,4.1-0.3,5.9l-1,1.8
		c-0.4,0.7-0.9,1.4-1.2,2.2c-0.8,1.8-0.8,3.7-0.8,5.5l-0.1,2.2l-0.2,1.2c-0.3,2.2-1.3,4.2-2.8,5.8c-0.7,0.7-1.5,1.2-2.5,1.7
		c-1.3,0.6-2.6,1.1-4.3,1.5l-2.7,0.6l-4,0.9c-2.4,0.6-4.3,1.1-6.3,2l-2.3,1.1c-3.1,1.4-6.3,2.9-9.2,2.8h-0.2
		c-2.1-0.1-3.8-1.2-5.2-3.2c-1.1-1.5-1.7-3.5-2.3-5.5l-0.6-1.9l-0.4-1.2l-2-4.3l-1.5-3.1C13.9,517.1,13.5,514.3,13.8,511.6
		L13.8,511.6z"/>
	<path class="st0" d="M10.5,522.6c1.2,2.2,2.2,4.5,3,6.8l0.9,2.9c0.7,2.5,1.4,5,2.8,7.1c2,3.1,4.5,4.8,7.6,5.1
		c4.6,0.4,9.9-2.2,14.5-4.6l1.9-0.9c5.5-2.6,11.3-4.4,17.3-5.3l1.1-0.2l5.2-1c1.5-0.4,2.8-1,3.9-1.9c2.1-1.6,3.8-4.4,4.6-7.6
		l0.3-1.6c0.2-1,0.2-2.1,0.3-3.1c0.2-2.2,0.4-4.6,1.4-6.8l1.7-2.9c0.6-0.9,1.2-1.8,1.6-2.7c1.4-2.8,1.5-5.7,0.5-9
		c-0.6-2.1-1.7-4.1-2.6-5.6c-1.8-3.8-4.5-7.1-7.9-9.6c-1.4-0.9-2.8-1.5-4.4-1.9c-0.9-0.2-1.7-0.3-2.6-0.3c-3.7-0.1-7.5,1.1-11.5,2.3
		c-3.5,1.1-7,2-10.6,2.5c-1.9,0.3-3.8,0.6-5.8,1.1c-3.1,0.8-6.4,2.2-10.3,4.4c-12.3,6.7-15.9,13.5-16.8,18
		c-0.6,3.2-0.1,6.4,1.6,10.4L10.5,522.6L10.5,522.6z"/>
	<path class="st0" d="M4.8,522.5c1,2.1,2.1,4.2,3,6.4l0.7,1.9l1.2,4c0.7,2.9,1.8,5.8,3.2,8.4c2.4,4.1,5.6,6.3,9.5,6.8l1,0.1
		c6,0.2,12.7-3.3,18.6-6.5l1.2-0.6c3.2-1.7,6.7-3.2,10.4-4.5c3.8-1.4,7.7-2.3,11.3-2.7l3.6-0.3c1.6-0.1,3-0.2,4.5-0.5
		c2-0.4,3.7-1,5.2-2c2.8-1.8,5-5.2,6.2-9.2l0.5-2c0.3-1.3,0.4-2.7,0.6-4c0.2-2.8,0.8-5.6,1.9-8.2c0.6-1.3,1.4-2.5,2.2-3.7
		c0.8-1.1,1.5-2.3,2.1-3.5c1.8-3.6,2-7.5,0.7-11.7c-0.8-2.5-1.9-4.9-3.3-7.2c-2.3-4.9-5.8-9.2-10.2-12.5c-1.8-1.2-3.7-2-5.7-2.4
		c-1.1-0.2-2.2-0.4-3.3-0.4c-4.8-0.2-9.6,1.4-14.8,3c-3.8,1.2-7.7,2.5-11.9,3.1l-2.2,0.3c-2.2,0.3-4.5,0.6-6.8,1.2
		c-4.4,1.3-8.6,3.1-12.6,5.4c-15.6,8.5-20.2,17.2-21.3,23l-0.2,1.4v3.9c0.2,2.4,0.9,4.8,2.1,7.6L4.8,522.5z"/>
	<path class="st0" d="M0.1,524.3c1.3,2.5,2.4,5.1,3.3,7.8l1.5,5c0.9,3.3,1.9,6.8,3.6,9.8c2.8,5,6.6,7.9,11.5,8.4
		c7.9,1,16.9-4,24.8-8.4l0.4-0.2c4.1-2.3,8.3-4.2,12.4-5.8c4.8-1.9,9.4-3,13.5-3.4l5.1-0.3c1.7,0,3.2-0.1,4.8-0.3
		c2.5-0.3,4.6-1,6.5-2.1c3.8-2.6,6.6-6.3,7.9-10.7l0.7-2.3L97,517c0.5-3.2,1-6.5,2.5-9.6c0.8-1.5,1.8-3,2.8-4.5
		c1-1.4,1.9-2.9,2.7-4.4c2.2-4.4,2.5-9.1,0.9-14.4c-1-3.1-2.4-6.1-4.1-8.9c-2.8-6.1-7.1-11.4-12.5-15.4c-3.2-2.3-7-3.5-10.9-3.5
		c-6.2,0.2-12.3,1.5-18,3.7c-4.7,1.5-9.6,3.1-14.7,3.8l-2.9,0.4c-2.6,0.3-5.2,0.7-7.8,1.3c-13.3,4.3-25.2,12-34.6,22.3"/>
	<path class="st0" d="M0.1,539l0.1,0.5c1.1,3.8,2.1,7.7,4,11.1c3.1,5.9,7.8,9.4,13.4,10.1c9.5,1.2,20.7-5.1,29.6-10.2
		c4.7-2.7,9.5-5.1,14.5-7.1c5.7-2.3,11-3.7,15.8-4.1c2.3-0.2,4.4-0.1,6.4-0.1c1.8,0,3.6,0.1,5.4-0.1c3-0.2,5.5-0.9,7.8-2.2
		c5.6-3.1,8.4-9,9.5-12.3l0.8-2.7c0.5-1.9,0.8-3.8,1.1-5.7c0.6-3.7,1.3-7.5,3.1-11.1c0.9-1.8,2.1-3.6,3.3-5.3
		c1.2-1.7,2.3-3.4,3.2-5.2c2.6-5.3,3-10.8,1-17.1c-1.2-3.7-2.9-7.3-4.9-10.6c-4.2-7.5-8.2-14-14.8-18.4c-3.8-2.6-8.3-4.1-12.9-4.2
		c-6.9-0.3-13.9,2-21.3,4.4c-5.6,1.8-11.5,3.7-17.6,4.6l-3.5,0.5c-2.9,0.4-5.9,0.7-8.9,1.5c-13,4.3-25,11.4-35.1,20.7"/>
	<path class="st0" d="M0.1,555.8c2.6,4.6,7.3,9.8,15.1,10.8c10.5,1.4,22.2-4.8,34.3-11.9c6.3-3.6,11.5-6.3,16.5-8.4
		c5.7-2.5,11.7-4.1,17.9-4.7c2.6-0.2,5.1-0.1,7.6,0c2.1,0.1,4,0.2,6,0.1c3.6-0.1,6.5-0.9,9.2-2.3c6.6-3.5,10-10.3,11.4-14.1l1-3.1
		c0.6-2.2,1-4.4,1.4-6.6c0.8-4.1,1.6-8.4,3.6-12.4c1-2.1,2.4-4.1,3.8-6c1.4-2,2.8-4,3.8-6.1c3.1-6.3,3.5-13.5,1.2-20.1
		c-1.5-4.3-3.4-8.4-5.7-12.3c-4-7.1-9-15.9-17.2-21.5c-4.5-3.1-9.8-4.8-15.2-4.9c-8-0.3-16.2,2.4-24.8,5.1
		c-6.6,2.1-13.3,4.3-20.4,5.3l-4.1,0.5c-3.3,0.4-6.7,0.8-10,1.6c-6.9,2-13.6,5-19.7,8.8C11.3,456.2,5.6,460,0,464.5"/>
	<path class="st0" d="M0.1,564.8c3,3.2,7.1,6,12.7,6.8l2.4,0.2c11.3,0.4,24-6.4,36-13.6c4.6-2.7,11.5-6.7,18.6-9.8
		c7.4-3.2,14.3-5,20.3-5.4c3.1-0.2,6,0,8.8,0.2l6.7,0.3c4-0.1,7.3-0.8,10.3-2.4c6-3.4,10.5-8.9,12.8-15.4l1.1-3.4
		c0.7-2.5,1.2-5,1.7-7.4c0.9-4.6,1.9-9.4,4.2-14c1.2-2.3,2.8-4.6,4.3-6.8s3.2-4.6,4.4-6.9c3.5-6.9,4-14.2,1.4-22.5
		c-1.6-5-4.1-9.9-6.4-13.9c-4.8-8.4-10.1-18-19.4-24.2c-5-3.4-10.9-5.3-16.9-5.5c-9-0.3-18.2,2.7-27.9,5.8
		c-7.5,2.4-15.2,4.9-23.4,6.1l-4.7,0.6c-3.6,0.4-7.4,0.9-11.1,1.8c-8.1,2-15.9,6.3-21.9,9.8c-4.9,2.9-9.6,6.1-14.1,9.5"/>
	<path class="st0" d="M0.1,572.7c2.8,2,6.2,3.6,10.3,4.2c6.1,0.8,13.1-0.4,21.5-3.7c7.4-3.2,14.6-6.9,21.4-11.2
		c5.6-3.4,13.1-7.7,20.6-11.1c7.1-3.4,14.8-5.4,22.6-6c3.5-0.2,6.7,0.1,9.9,0.4c2.5,0.2,4.9,0.4,7.4,0.4c4,0.1,8-0.7,11.6-2.5
		c6.7-3.7,11.8-9.7,14.4-16.9l1.3-3.8c0.8-2.7,1.4-5.5,2-8.2c1.1-5.1,2.2-10.4,4.8-15.4c1.4-2.6,3.1-5.2,4.8-7.6
		c1.7-2.5,3.6-5.1,4.9-7.8c3.9-7.7,4.4-16,1.5-25.2c-1.9-5.4-4.3-10.7-7.2-15.6c-5-10.6-12.4-20-21.7-27.2
		c-5.6-3.8-12.1-5.9-18.9-6.2c-10.1-0.4-20.4,3-31.2,6.5c-8.4,2.7-17.1,5.6-26.3,6.8c-1.8,0.2-3.5,0.5-5.3,0.6
		c-4,0.5-8.1,0.9-12.2,1.9c-8.9,2.2-17.6,7-24.2,10.9c-4.2,2.5-8.2,5.2-12.2,8"/>
	<path class="st0" d="M0.1,579.8c2.3,1.2,5,2.1,7.9,2.5c15,2.1,32.2-7.4,47.2-16.5C62,561.7,70,557,78,553.4
		c7.8-3.8,16.2-6.1,24.9-6.7c3.8-0.1,7.5,0.2,11.1,0.6l8.1,0.6c5,0.1,9.1-0.7,12.9-2.6c9.2-4.4,14-13.5,16.1-18.5
		c1.5-4.3,2.8-8.7,3.7-13.2c1-5.8,2.8-11.5,5.3-16.8c1.5-2.9,3.5-5.7,5.3-8.4c1.9-2.8,4-5.7,5.5-8.7c4.4-8.7,5-18.8,1.7-27.9
		c-2-6.2-5.1-12.2-8-17.2c-5.9-10.5-12.6-22.4-24-30.1c-6.2-4.2-13.4-6.6-20.9-6.9c-11.1-0.4-22.5,3.3-34.5,7.2
		c-9.3,3-19,6.2-29.1,7.6l-5.8,0.7c-4.3,0.5-8.8,1-13.3,2.1c-9.4,2.7-18.3,6.7-26.5,12c-3.5,2.1-7,4.4-10.4,6.7"/>
	<path class="st0" d="M0.1,586.3c1.7,0.6,3.6,1.1,5.5,1.4c7.4,1.1,15.9-0.4,25.9-4.4c9-3.6,18.1-9,25.8-13.7
		c7.8-4.8,16.3-9.8,24.7-13.7c10.1-4.7,19-7.1,27.2-7.3c4.2-0.1,8.3,0.3,12.2,0.7c2.8,0.3,5.5,0.6,8.2,0.7h0.6
		c5.4,0.1,10-0.7,14.2-2.6c8.1-4.3,14.4-11.4,17.7-20c0.6-1.5,1.2-3,1.6-4.5c1-3.3,1.8-6.7,2.5-9.9c1.3-6,2.7-12.3,5.9-18.3
		c1.6-3.1,3.8-6.2,5.9-9.2c2.1-3.1,4.4-6.3,6-9.5c4.8-9.5,5.5-20.5,1.9-30.5c-2.2-6.6-5.1-12.9-8.7-18.9
		c-6.5-11.5-13.8-24.6-26.3-33c-6.7-4.7-14.7-7.3-22.9-7.6c-12.2-0.4-24.7,3.6-37.8,7.9c-10.3,3.3-20.9,6.8-32,8.3l-6.4,0.8
		c-4.7,0.5-9.5,1.1-14.3,2.2c-10.2,2.9-19.9,7.3-28.8,13.1l-8.5,5.4"/>
	<path class="st0" d="M0.1,592.9c1,0.2,2,0.5,3.1,0.6c17.3,2.5,37.3-8,56.4-19.8c8-4.9,17.3-10.6,26.8-14.9
		c9.1-4.6,19.1-7.3,29.3-7.9c4.6-0.1,9,0.4,13.2,0.9c3.1,0.4,6.3,0.7,9.5,0.9c6,0.2,11-0.7,15.7-2.8c9-4.6,16-12.4,19.6-21.8
		c1.8-5.1,3.3-10.4,4.6-15.7c1.5-6.5,3-13.2,6.4-19.6c1.8-3.4,4.1-6.7,6.3-9.9c2.4-3.4,4.8-6.8,6.6-10.4c5.3-10.3,6-21.3,2.1-33.6
		c-2.4-7.4-6.1-14.6-9.5-20.7c-7.1-12.6-15.1-26.9-28.7-36.1c-7.4-5.1-16.1-8-25.1-8.3c-13.3-0.5-26.9,4-41.1,8.6
		c-11.3,4.1-23,7.1-34.9,9.1l-7.1,0.9c-5,0.6-10.2,1.1-15.4,2.4c-11,3.2-21.6,8-31.2,14.2l-6.4,4"/>
	<path class="st0" d="M0.1,598.3l0.8,0.1l4.3,0.4c17.6,0.6,37.3-9.9,56.2-21.7c9.1-5.7,18.9-11.6,28.9-16.3c9.8-5.1,20.6-8,31.7-8.6
		c5-0.1,9.8,0.5,14.4,1.1c3.4,0.4,6.8,0.9,10.2,1h0.3c6.3,0.2,11.5-0.7,16.4-2.8c9.6-4.9,17.1-13.1,21-23.1l2-5.2
		c1.2-3.9,2.2-7.8,3.1-11.7c1.6-7,3.3-14.2,7-21.1c1.9-3.7,4.5-7.3,6.9-10.7c2.5-3.6,5.2-7.4,7.1-11.2c5.7-11.1,6.5-24.1,2.2-35.9
		c-2.5-8-6.4-15.4-10.3-22.2c-7.6-13.6-16.3-29-30.9-38.9c-8-5.4-17.3-8.5-26.9-8.8c-14.3-0.5-28.9,4.3-44.3,9.3
		c-12.3,4.5-25,7.8-37.9,9.9l-7.7,0.9c-5.4,0.6-10.9,1.2-16.4,2.5c-13.7,3.9-26.6,10-38.1,18.3"/>
	<path class="st0" d="M0,604.5c19.8,2.1,42.3-9.8,63.6-23.1c10-6.4,20.3-12.3,30.9-17.6c12.7-6,23.8-9.1,33.8-9.2
		c5.3-0.1,10.5,0.6,15.5,1.3c3.6,0.5,7.3,1,11,1.2c6.2,0.5,12.5-0.5,18.2-3c13-5.6,19.9-18,22.9-24.9c0.8-1.8,1.5-3.8,2.1-5.6
		c1.4-4.2,2.4-8.4,3.4-12.6c1.8-7.4,3.6-15.1,7.5-22.5c2.1-3.9,4.8-7.7,7.4-11.5c2.7-3.9,5.6-8,7.7-12.2c6.1-12.1,7-26.2,2.4-39
		c-2.7-8.6-6.9-16.6-11.1-24c-8.2-14.7-17.6-31.3-33.3-42c-8.6-5.8-18.7-9.1-29.1-9.5c-15.4-0.6-31.2,4.6-47.7,10
		c-13,4.3-26.5,8.7-40.6,10.6l-8.2,1c-5.8,0.6-11.7,1.3-17.6,2.7C26.1,378.2,14,383.8,3,391l-2.6,1.6"/>
	<path class="st0" d="M0,609.5c9,0.5,19.2-1.5,30.8-6.2c12-5.2,23.5-11.4,34.5-18.6c10-6.3,21.4-13.4,33-18.9
		c11.2-5.9,23.6-9.3,36.3-9.9c5.7-0.1,11.3,0.7,16.7,1.5c3.8,0.5,7.8,1.1,11.7,1.3l1.2,0.1c6.9,0.3,12.7-0.7,18.2-3.1
		c11.1-5.5,19.7-14.8,24.3-26.3c0.9-2,1.6-4,2.3-6c1.5-4.4,2.6-9,3.6-13.4c1.6-8.3,4.4-16.4,8.1-24c2.2-4.2,5.1-8.3,7.9-12.3
		c2.9-4.2,6-8.5,8.3-13c6.5-12.8,7.4-27.8,2.5-41.3c-2.9-9.1-7.4-17.7-11.8-25.6c-4.3-7.7-9.2-16.5-15.1-24.4
		c-5.5-7.9-12.5-14.8-20.4-20.3c-9.1-6.4-19.9-9.9-31-10.1c-16.4-0.6-33.2,4.9-50.9,10.7c-14,4.6-28.4,9.3-43.6,11.4l-8.8,1
		c-6.1,0.7-12.4,1.3-18.7,2.9c-13.9,4-27,10.1-39,18.1"/>
	<path class="st0" d="M0,615c9,0.1,19-2.1,30.5-6.7c12.8-5.5,25.1-12.1,36.7-19.8c10.7-6.7,22.8-14.3,35-20.2
		c11.9-6.3,25-9.9,38.5-10.6c6.1-0.1,12,0.8,17.8,1.6c4.1,0.6,8.3,1.2,12.4,1.5l1.6,0.1c6.5,0.4,13-0.7,19-3.2
		c11.8-5.8,21-15.7,25.9-27.8l2.5-6.3c1.6-4.7,2.8-9.6,3.9-14.2c2.1-8.4,4.2-17.1,8.7-25.5c2.4-4.5,5.5-8.8,8.4-13.1
		c3.1-4.5,6.4-9.1,8.8-13.8c7.2-13.6,8.2-29.6,2.7-44c-3.1-9.7-7.9-18.8-12.6-27.2c-4.8-9-10.2-17.6-16-26
		c-6-8.4-13.3-15.7-21.7-21.6c-9.7-6.7-21.2-10.5-33-10.8c-17.4-0.6-35.4,5.2-54.2,11.4c-15.1,5.4-30.7,9.5-46.5,12.1L59,352
		c-6.5,0.7-13.2,1.4-19.8,3c-14.2,3.5-27.8,11-39.4,18"/>
	<path class="st0" d="M0.1,620.4c9-0.2,19-2.5,30.3-7.1c13.5-5.9,26.6-12.9,38.9-21c12-7.8,24.3-15,37.1-21.5
		c12.6-6.7,26.5-10.5,40.8-11.2c6.5-0.1,12.8,0.9,18.9,1.8c4.3,0.7,8.8,1.3,13.1,1.6l2,0.1c7.5,0.3,13.9-0.8,19.9-3.3
		c12.5-6.1,22.3-16.5,27.6-29.4c2.8-7.1,5-14.4,6.8-21.8c2.2-8.9,4.5-18.1,9.2-26.9c2.5-4.7,5.8-9.3,8.9-13.8
		c3.3-4.8,6.8-9.7,9.4-14.8c3.9-7.4,6-15.6,6.3-23.9c0.2-7.2-0.9-14.7-3.5-22.8c-8-19.9-18.2-38.8-30.4-56.5
		c-6.3-8.9-14.1-16.7-23.1-23c-10.3-7.2-22.5-11.2-35-11.5c-18.5-0.7-37.5,5.6-57.5,12.1c-16,5.8-32.5,10.1-49.3,12.9
		c-3.3,0.5-6.7,0.8-9.9,1.1c-6.8,0.7-13.9,1.5-20.9,3.2c-14.2,3.5-28,10.8-39.8,18"/>
	<path class="st0" d="M0.1,625.8c23.2-1.2,48.7-15.4,71.2-29.7c12.7-8,25.7-16.3,39.1-22.8c13.3-7.1,28-11.2,43.1-11.9
		c6.8-0.1,13.5,1,20,2c4.5,0.7,9.2,1.4,13.9,1.8l2.4,0.1c7.8,0.3,14.5-0.8,20.8-3.4c13.2-6.3,23.6-17.3,29.2-30.9
		c1-2.3,2-4.7,2.8-7.1c1.8-5.3,3.2-10.7,4.5-15.9c2.4-9.4,4.8-19,9.8-28.3c2.7-5,6.1-9.8,9.4-14.6c3.5-5,7.2-10.3,10-15.6
		c4.1-7.8,6.4-16.5,6.7-25.3c0.2-7.7-0.9-15.5-3.7-24.1c-3.7-10.6-8.4-20.9-14.1-30.6c-5.4-10.1-11.4-19.8-18-29.2
		c-6.6-9.5-14.9-17.7-24.4-24.3c-10.9-7.5-23.7-11.7-36.9-12.2c-19.6-0.7-39.7,5.9-60.8,12.8c-16.7,5.5-34,11.2-52.2,13.6l-10.5,1.2
		c-7.2,0.8-14.6,1.5-22,3.3c-14.2,4-27.8,10-40.2,17.9"/>
	<path class="st0" d="M0.1,631.1c24-1.9,50.1-16.4,73.2-31.2l0.3-0.2c13.2-8.7,26.8-16.7,40.9-23.9c17.1-8.4,32-12.5,45.4-12.5
		c7.2,0,14.3,1.1,21.1,2.2c4.8,0.8,9.7,1.6,14.6,1.9c9.4,0.7,17.2-0.4,24.5-3.4c17.3-7.1,26.8-23.4,30.9-32.5
		c1.1-2.4,2.1-4.9,2.9-7.4c1.9-5.6,3.4-11.3,4.8-16.8c2.5-9.8,5.1-20,10.3-29.7c2.8-5.2,6.4-10.4,9.9-15.3
		c3.7-5.3,7.6-10.8,10.5-16.5c4.3-8.3,6.8-17.4,7.1-26.7c0.3-8.1-1-16.4-3.9-25.4c-3.8-11.2-8.8-22-14.9-32.2
		c-5.7-10.6-12.1-20.9-19-30.8c-8-10.9-16.4-19.3-25.7-25.6c-11.5-7.9-25-12.3-38.9-12.8c-20.6-0.8-41.9,6.2-64.1,13.5
		c-17.9,6.5-36.3,11.3-55.1,14.4l-11,1.3c-7.6,0.8-15.4,1.6-23.2,3.5c-14.3,4-28.1,10-40.7,17.9"/>
	<path class="st0" d="M0.1,636.8c24.9-2.5,51.7-17.5,75.5-32.7l0.5-0.3c13.7-9.1,28-17.5,42.6-25c14.6-7.9,30.8-12.4,47.4-13.1
		c7.5,0,14.9,1.2,22.1,2.4c5,0.8,10.2,1.7,15.4,2.1c10,0.8,18.2-0.3,26-3.5c18.3-7.5,28.4-24.7,32.8-34.2c1.2-2.6,2.2-5.2,3.1-7.8
		c1.9-5.8,3.6-11.7,5-17.7c2.6-10.3,5.4-20.9,10.8-31.1c3-5.5,6.8-10.9,10.4-16.1c3.9-5.6,8-11.4,11.1-17.4
		c8.7-17.1,9.9-37.1,3.4-55.1c-4.1-11.8-9.4-23.2-15.7-34c-11.7-20.9-25-44.5-47.1-59.5c-12.1-8.4-26.4-13.1-41.2-13.6
		c-21.8-0.8-44.1,6.5-67.5,14.2c-18.8,6.8-38.2,11.9-57.9,15.1l-11.6,1.3c-7.9,0.8-16.2,1.7-24.3,3.7c-14.4,3.9-28.3,9.9-41,17.8"/>
	<path class="st0" d="M0.1,641.6c25.5-3.1,52.9-18.5,77.3-34l0.8-0.5c15-9.6,30.5-19.5,46.4-27.1c18-8.6,33.7-12.9,48-12.9
		c7.9,0,15.7,1.3,23.3,2.5c7,1.4,14.1,2.2,21.3,2.5c8,0.1,15.2-1.1,21.9-3.8c9.4-4,17.5-10.3,23.7-18.4c5.8-7.2,10.5-16,13.7-25.4
		c2.1-6.2,3.7-12.4,5.3-18.5c2.5-11.3,6.3-22.2,11.4-32.6c3.1-5.8,7.1-11.4,11-16.9c4.1-5.9,8.4-11.9,11.6-18.2
		c7.9-15.1,9.9-32.5,5.8-49c-4.1-15.5-10.4-30.3-18.7-44c-6.1-10.8-12.9-23-20.9-34c-7.7-11-17.4-20.6-28.4-28.3
		c-16.1-11.2-35.8-16.1-55.3-13.8c-18.8,1.6-38,7.9-58.3,14.6c-19.5,6.4-39.6,13-60.8,15.9L67,301.1c-8.3,0.9-16.9,1.7-25.4,3.8
		c-14.6,4-28.6,10-41.5,17.9"/>
	<path class="st0" d="M0.1,650.6c3.3-0.2,6.8-0.4,10.5-0.9c9.4-1.1,18.6-3.1,28.7-6.4c15-5,29.3-11.6,42.9-19.7
		c6.5-4,12.9-8.1,19.2-12.4c5-3.4,10.3-6.8,15.5-10.1c14.5-9,26.4-14.4,37.7-17c3.6-0.8,7.2-1.4,10.5-2l2.4-0.4
		c4.9-0.8,10-1.6,14.9-1.9c8-0.5,15.7,0.3,23.2,1.2c14,1.5,27.2,2.9,41.3-3.7c10.4-5.4,19.2-13.5,25.4-23.4c4.1-6.5,7.5-14,9.9-21.7
		c1.8-5.8,3.2-11.7,4.5-17.4c2.7-11.5,5.5-23.4,11.7-34.3c2.2-4,5.2-7.7,8.1-11.3l3.8-4.9c4.5-6,9.6-13,13.2-20.2
		c6.6-12.8,9.3-27.3,7.8-41.6c-1.5-13.8-5.4-27.3-11.5-39.8c-2.4-5.1-5.2-10.6-8.7-16.8c-12.6-22.5-28.2-47.9-53.1-64.2
		c-14.4-9.5-31.2-14.8-48.4-15.3c-5.9-0.2-12.1,0-18.6,0.7c-12.4,1.6-24.7,3.9-36.8,7.1l-11.7,2.9c-19,4.9-38.7,9.9-59.7,12.1
		l-0.8,0.1c-10.8,1.2-20.9,2.3-31.2,4.6l-8.1,2.1c-14.7,4.4-29,11.9-42.5,20.1"/>
	<path class="st0" d="M0.1,659.8l11.7-0.2l2.2-0.1c25.7-0.3,50.8-7,73.3-19.4c8.5-4.8,16.8-10.7,24.7-16.4c3.8-2.7,7.6-5.5,11.5-8.1
		c15.1-10.3,27.7-16,39.5-18c2.7-0.5,5.5-0.8,8.2-1.1l3-0.3c3.2-0.4,6.4-0.9,9.5-1.5l8.7-1.4c7.8-0.9,15.4-0.6,22.8-0.2
		c13.6,0.7,26.5,1.3,40-6c2.7-1.5,5.5-3.3,8.6-5.8c12.2-10.8,20.8-25.1,24.6-40.9c1.5-5.5,2.7-11,3.8-16.4
		c2.7-12.7,5.2-24.7,11.8-35.8c2.3-3.7,5-7.2,8.1-10.3c7.7-8.3,14.2-17.6,19.5-27.6c6.8-13.6,9.6-28.8,8.2-43.9
		c-1-13.5-4.7-27.7-11.1-42.2c-2.7-6-5.7-12-9-17.7c-12.2-21.7-29.7-48.9-57.1-66.3c-9.8-6.3-20.6-10.9-32-13.6
		c-8.1-2-16.1-2.9-24-3.2c-16.3-0.2-32.6,1.3-48.6,4.5l-14.7,2.6c-18.9,3.7-37.9,6.5-57.1,8.4c-14.6,1.1-28.9,4-42.8,8.5
		c-15.2,5.8-29.7,13.2-43.4,22.1"/>
	<path class="st0" d="M0.1,667.9H2c5.1,0.1,10.3,0.1,15.2,0.4h0.7c10.1,0.6,18.1,1.1,27.3,0.4c16.3-1.1,32.2-5.6,46.7-13
		c9.9-5.2,19-12.3,27.9-19.2l9.8-7.5c15.6-11.5,29.3-17.7,41.7-19.1c2.3-0.3,4.6-0.4,6.9-0.5l4.9-0.3c4.4-0.4,8.7-1.3,12.9-2.2
		l6.3-1.3c7.7-1.3,15.1-1.5,22.2-1.6c13.2-0.2,25.7-0.4,38.5-8.3c9.7-6.1,17.4-14.8,22.4-25.1c3.5-6.8,6.4-14.6,8.4-22.7
		c1.2-5.1,2.2-10.4,3.2-15.4c2.5-13.5,5-26.2,11.9-37.6c2.2-3.7,5.3-6.7,8.6-10c2.1-2.1,4.3-4.3,6.2-6.6
		c17.1-18.5,25.7-43.3,23.8-68.4c-0.9-14.6-4.5-29.5-10.7-44.2c-8.9-20.4-20.8-39.5-35.2-56.5c-10-11.8-21.7-22-34.8-30.2
		c-10.1-6.2-21.1-10.9-32.5-13.9c-11-2.9-22.2-4.5-33.5-4.9l-2.5-0.1c-12.7-0.3-25.4,0.7-36.1,1.8l-21.8,2.3
		c-16,1.7-32.6,3.5-50.4,4.6c-15.5,1-30.8,4.4-45.3,10c-15.6,6.7-30.5,14.8-44.5,24.3"/>
	<path class="st0" d="M0.1,676.4c10.5,0.1,20.9,1.1,31.2,2.9c5.6,0.9,10.9,1.8,16.7,2.2l2.4,0.1c6.7,0.2,13.9-0.3,20.9-1.5
		c8.8-1.5,17.4-4.3,25.4-8.2c11-5.5,20.8-13.6,30.3-21.5l8.9-7.2c16.2-12.7,30.5-19.3,43.8-20.2l6.4-0.2l6-0.1
		c5.3-0.3,10.4-1.6,15.3-2.8l4.7-1.2c7.4-1.7,14.5-2.3,21.3-2.8c13-1.1,25.3-2.1,37.6-10.7c2.8-1.9,5.3-4.3,7.6-6.5
		c5.6-5.6,10.1-12.1,13.3-19.3c3.3-6.9,5.9-15,7.6-23.3c1-4.8,1.8-9.7,2.6-14.4c2.4-14.2,4.6-27.6,11.9-39.2
		c2.3-3.7,5.6-6.6,9.2-9.8c2.5-2.2,5-4.4,7.1-6.9c7.2-8.3,12.5-16.1,16.2-23.7c6.8-14,9.8-29.6,9-47.9c-1-23.2-7.8-45.8-19.7-65.8
		c-17.6-31.4-39.3-54.9-64.6-70c-10-5.9-20.5-10.5-33.1-14.3c-16-4.6-32.6-7.2-49.3-7.6c-7.5-0.3-15.1-0.3-22.6-0.1
		c-15.7,0.3-32.6,1-50.5,1.8l-22.2,1c-16.5,0.7-32.8,4.7-47.8,11.7c-15.9,7.4-31.1,16.2-45.4,26.3"/>
	<path class="st0" d="M0.1,684.7c7.5,0.1,16,0.4,23.5,2c5.6,1.2,10.2,2.6,14.5,4c20.6,7.2,43.2,6.2,63.1-2.9
		c12-5.7,22.4-14.8,32.4-23.6l8.3-7.2c7.6-6.4,14.7-11.1,21.6-14.7c9.3-4.9,19.8-7.1,30.3-6.5c2.2,0.1,4.5,0.2,6.8,0.1
		c6.1-0.1,11.8-1.8,17.4-3.5l3.5-1c7-2,13.6-3,20-4c12.9-2,25.1-3.8,36.9-13.2c2.5-2,4.8-4.4,7-6.8l0.1-0.1
		c5.2-5.8,9.4-12.5,12.3-19.7c3.2-7.7,5.5-15.6,6.9-23.8l2.1-13.4c2.2-15,4.2-29.1,11.8-40.8c2.4-3.7,6-6.6,9.8-9.7
		c2.8-2.2,5.6-4.5,8-7.2c7.5-8.3,13.3-16.7,17.2-24.9c3.8-7.9,6.4-16.3,7.8-24.9c4.5-32.4-1.8-65.5-18.1-93.9
		c-8.1-14.6-17.9-28.2-29.3-40.5c-11.4-12.4-24.6-23-39.1-31.5c-10.7-6.1-22-11-33.8-14.6c-23.2-7.2-47.3-11.3-71.6-12.2l-19.9-1
		c-17.3-0.6-34.8-0.7-53.2-0.3c-13.1,0.3-26.4,3.2-40.6,9c-3.5,1.4-6.7,2.9-9.9,4.3c-15.9,8.2-31.2,17.6-45.8,28.1"/>
	<path class="st0" d="M0.1,693h0.6c11.1,0,19.3,0.8,26,2.7c6.5,1.8,11.4,4.1,16.1,6.3c3.5,1.6,6.8,3.2,10.7,4.5
		c17.3,5.5,36,4.4,52.5-3c13-5.9,23.8-15.9,34.2-25.6l8-7.3c7.7-6.8,15.2-12.1,22.4-15.8c7.8-4.3,16.5-6.5,25.4-6.5l6.2,0.4
		c2.4,0.2,4.9,0.4,7.4,0.4c7.5-0.3,15-2,21.9-5c6.5-2.1,12.6-3.5,18.5-4.8c6.6-1.5,12.9-2.9,18.9-5.2c6.5-2.4,12.5-6.1,17.6-10.8
		c2.2-1.9,4.1-4.2,6-6.4l0.8-0.9c9.6-13,15.6-28.4,17.4-44.5l1.6-12.2c2-15.8,3.8-30.8,11.7-42.7c2.5-3.8,6.4-6.6,10.5-9.7
		c3.1-2.3,6.3-4.6,8.8-7.4c7.9-8.5,14-17.2,18.2-26.1c7.4-16.3,10.7-34.2,9.7-52.1c-0.5-25.2-7.1-50-19.4-72
		c-8.6-15.4-19-29.4-31-41.8c-20.8-21.9-46.9-38.1-75.7-47.1c-23.2-7.9-47.1-13.5-71.4-16.7c-24.4-3.6-49-5.4-73.6-5.4
		c-13.5,0.1-27.5,3.4-42.7,10c-3.7,1.6-7,3.2-10.3,4.9c-16.4,8.8-32.1,18.9-47,30"/>
	<path class="st0" d="M0,701.3l2.7-0.1c9.1-0.4,18.3,0.8,27,3.5c7,2.5,12,5.7,16.8,8.7c10.1,7,22.1,10.9,34.4,11.2h0.3
		c10.3,0.3,20.5-1.5,29.3-5.3c13.9-6,25.1-17,35.9-27.5l7.7-7.5c17.3-16.1,33.8-24,48.9-23.4h0.9c2.1,0.1,4.2,0.4,6.2,0.6
		c2.6,0.3,5.3,0.7,8,0.7c7.6,0.2,14.9-2.6,21.4-5.1l1.4-0.5c5.8-2.2,11.2-3.8,16.4-5.4c13.7-4.1,25.5-7.7,36.7-19.1
		c1.9-1.9,3.5-4.1,5.1-6.2l1.1-1.5c7.7-10,13.2-26.1,15.6-45.4l1.2-11c1.7-16.7,3.3-32.4,11.6-44.4c2.6-3.8,6.8-6.7,11.2-9.7
		c3.4-2.3,6.9-4.7,9.6-7.6c8.3-8.6,14.7-17.8,19.2-27.2c7.5-17.1,10.9-35.6,10.1-54.2c-0.3-19.7-3.2-37-9-52.8
		c-2.7-7.3-6.1-14.8-10.3-22.2c-17.8-31.9-44.1-58.1-76-75.8c-12-6.6-23.9-11.2-35-15.4c-24.2-9-46.1-15.6-71.1-21.2
		c-21.8-5.1-44.1-8.2-66.5-9.3l-7.5-0.2c-14-0.1-28.7,3.5-44.9,11.1c-3.8,1.8-7.3,3.6-10.7,5.4c-16.5,9-32.4,20.4-47.8,31.7"/>
	<path class="st0" d="M0,710l4.7-0.2c9.5-0.5,18.9,0.9,27.8,4.2c7.4,3.1,12.3,7.1,17.1,11c2.9,2.4,5.6,4.6,8.9,6.7
		c17.3,9.8,38.2,11.2,56.7,3.7c14.9-6.2,26.5-18,37.7-29.5l7.6-7.7c18.1-17.6,35.4-25.8,51.5-24.3c2.1,0.2,4.3,0.5,6.3,0.9
		c2.8,0.4,5.6,0.9,8.5,1h0.3c8.4,0.3,16.3-3.1,23.3-6.1l0.4-0.2c4.8-2.1,9.4-3.8,13.8-5.4c14.2-5.3,26.5-10,37.6-22.9
		c1.6-1.9,3.1-4.1,4.5-6.1l1.4-2c7-10.1,11.9-26.7,13.9-46.6l0.9-9.9c1.4-17.5,2.8-34,11.3-46c2.7-3.8,7.1-6.6,11.7-9.6
		c3.7-2.3,7.5-4.8,10.5-7.8c8.7-8.9,15.6-18.4,20.3-28.5c7.8-17.8,11.4-37.1,10.5-56.5c-0.1-21-2.9-39-8.6-55.1
		c-2.7-7.7-6.3-15.5-10.6-23.2c-18.8-33-46.6-60-80.1-77.9c-11-5.7-22.4-10.7-34-15.1l-1.8-0.7c-23.3-9.5-46.9-18.1-70.9-25.7
		c-20-6.1-44.1-12.5-72-13.5l-2.6-0.1c-14.6-0.4-30,3.6-47.2,12.2l-11.2,6C31.5,245.2,15.4,256.2,0,268.2"/>
	<path class="st0" d="M0,717.7l6.6-0.3c8.1-0.2,19.7,0.5,28.9,4.9c7.8,3.7,12.6,8.7,17.3,13.4c2.6,2.6,5.3,5.3,8.3,7.7
		c17,11.8,38.8,14.5,58.2,7.1c15.6-6.2,27.6-19,39.2-31.3l7.5-7.9c8.3-8.4,16.6-14.8,24.7-19.2c10.8-6.2,23.5-8.1,35.6-5.2
		c2.9,0.7,5.9,1.1,8.9,1.3h0.8c9,0.3,17.5-3.8,23.8-6.8l10.4-4.8c7.5-3.4,14.7-6.6,21.1-10.7c9-5.6,16.4-13.3,21.7-22.5l1.5-2.4
		c3.8-6.6,6.6-13.8,8.2-21.3c1.9-7.7,3.2-16.5,3.9-26l0.6-8.6c1.2-18.5,2.2-35.9,11.1-48.1c2.9-4,7.6-6.8,12.6-9.7
		c4-2.3,8.1-4.8,11.2-7.9c9.1-9,16.3-19,21.2-29.6c7.7-18.5,11.4-38.4,10.9-58.4c0.1-22.5-2.5-40.6-8.1-57.2
		c-2.7-8-6.4-16.1-10.8-24c-19.7-34-48.7-61.7-83.7-79.7c-9.8-5.1-19.7-9.2-29.3-13.2l-7-2.9c-10.3-4.3-19.9-8.5-29.2-12.6
		c-14.2-6.2-27.7-12.1-41.4-17.5c-23.8-10.1-49.1-16.1-74.9-17.7h-0.1c-8.3-0.3-16.6,0.8-25.5,3.4c-7.4,2.2-15.1,5.4-23.5,9.8
		c-3.9,2.1-7.8,4.3-11.6,6.5c-16.9,11-33.2,22.7-49,35.1"/>
	<path class="st0" d="M0,725.8l8.3-0.5c8.4-0.3,20.4,0.5,29.9,5.6c8,4.3,12.7,10.1,17.3,15.7c2.4,3,5,6.1,8,8.9
		c3.3,3.1,7.3,5.7,11.9,7.9c15.1,7.2,32.5,8.1,48.2,2.4c16.5-6.3,28.8-19.9,40.7-33.1l7.5-8.1c12.3-13,30.9-27.7,51.3-27l4.6,0.4
		c2.2,0.3,4.5,0.9,6.7,1.3c3.1,0.8,6.2,1.3,9.4,1.7l1.2,0.1c8.8,0.3,17.1-3.6,24.3-7.4l5.8-3c17.1-8.8,30.6-15.8,41.6-32.6
		c1.3-1.9,2.4-4,3.4-6.1l1.5-2.8c7.2-13.1,9.5-33.5,10.3-48.3l0.3-7.2c0.4-9.3,0.8-19,2.3-27.6c1.6-9.6,4.4-17,8.5-22.5
		c3-4.1,8-6.8,13.3-9.7c4.3-2.4,8.7-4.8,12-8c16.9-16.1,27.8-37.4,31-60.5c1.5-8.9,2.2-18.7,2.4-30.7c0.3-23.7-2.2-42.6-7.7-59.3
		c-2.8-8.3-6.5-16.7-11.1-25c-20.6-35.2-51-63.6-87.6-81.6c-8.3-4.1-16.8-8-25.4-11.5l-11.5-5c-16.1-7.1-30.3-14.4-44-21.4
		c-9-4.6-17.5-9-26.4-13.2c-11.3-5.5-22.9-10.3-34.8-14.2c-13.1-4.3-26.7-6.8-40.5-7.6h-1c-15.5-0.6-31.5,4-50.3,14.4
		c-4,2.2-8,4.6-12,7.1c-16.5,10.4-32.5,22.9-48,35l-1.3,1"/>
	<path class="st0" d="M0,734.2l1.1-0.1c3.5-0.4,6.2-0.6,8.8-0.6c8.6-0.3,20.9,0.5,30.6,6.3c8.2,4.9,12.7,11.5,17.1,17.9
		c2.3,3.5,4.9,6.9,7.7,10.1c16.6,16,40.8,21.3,62.6,13.8c17.5-6.5,30.1-21,42.4-35c2.4-2.8,4.9-5.6,7.4-8.4
		c13.5-14.8,34.4-31.6,57.5-27.5c2.3,0.4,4.6,1,6.8,1.6c3.2,0.8,6.5,1.7,9.9,2c9.7,0.9,18.5-3.2,26.7-7.9
		c19.2-10.9,34.3-19.6,45.7-39.4l3.1-6.2l1.4-3.1c6.3-13.1,8.1-34.1,8.5-49.4l0.1-5.7c0.5-20.4,0.9-39.6,10.3-51.9
		c3.1-4.1,8.3-6.8,13.8-9.7c4.6-2.4,9.3-4.9,12.9-8.2c9.9-9.3,18-20.4,23.3-32c9.5-20.8,11.2-43.4,11.7-62.8
		c1-20.8-1.5-41.6-7.3-61.6c-2.9-9-6.7-17.7-11.4-25.9c-19.1-34.1-51.6-63.8-91.6-83.7c-7.4-3.7-14.9-6.9-22.2-10.1l-15.4-6.8
		c-17.2-8.2-33.9-17.4-50.1-27.4l-19.9-11.7c-20.7-11.7-46-24-75.9-25.9l-1.8-0.1c-16-0.6-32.5,4.4-51.8,15.6
		c-4.2,2.5-8.4,5-12.5,7.7C33,218.5,17.1,231.2,1.7,243.5l-1.6,1.3"/>
	<path class="st0" d="M0,741.5l2.1-0.3c3.4-0.4,6.3-0.6,9.1-0.8c11.1-0.9,22.2,1.6,31.8,7.1c8.5,5.5,12.9,13,17.1,20.3
		c7.3,14.2,20.1,24.6,35.5,28.8c12.2,3.5,25,3.3,35.9-0.6c18.2-6.5,31.2-21.9,43.7-36.7l7.4-8.7c8.8-10,17.9-17.6,27.1-22.6
		c9.8-5.9,21.5-8.1,32.8-6.1c2.4,0.5,4.7,1.2,7,1.8c3.3,0.9,6.7,1.9,10.3,2.3c10.2,1.2,19.6-3.6,27.3-8.4c9-5.3,17.5-11.4,25.4-18.3
		c9.3-8.5,16.5-19.1,21-30.9l1.3-3.3c4.3-10.4,6.6-27.2,6.7-50.2v-4.1c0-10.3,0.1-21,1.3-30.4c0.7-8.6,3.7-16.9,8.6-24
		c3.3-4.2,8.8-7,14.7-9.8c4.9-2.4,9.9-4.9,13.6-8.3c10.2-9.3,18.4-20.6,24.2-33.1c4.5-10.1,7.6-20.8,9.2-31.8
		c1.5-9.4,2.4-19.6,2.8-32.9c0.4-10.7,0.1-21.4-0.8-32c-1.6-20.6-7.6-40.5-17.7-58.5c-10.7-18.8-24.6-35.6-40.9-49.7
		c-16-14-34.2-26.1-54.3-35.8c-6.5-3.2-13.1-6-19.5-8.8c-6.3-2.7-12.5-5.5-18.7-8.4c-20.3-9.9-37.1-21.4-53.4-32.5
		c-5.4-3.7-10.9-7.5-16.4-11.1c-20.6-13.5-45.8-27.7-76.2-29.9l-2.6-0.1c-8.6-0.3-17.4,1-26.6,4.1c-8.2,2.7-16.8,6.8-26.4,12.5
		c-4.2,2.6-8.6,5.3-12.9,8.2c-16.1,11.2-32,24-47.3,36.5l-2.1,1.7"/>
	<path class="st0" d="M0.1,749l3-0.4c3.5-0.5,6.6-0.7,9.4-0.9c7.6-0.4,22,0.2,32.8,7.8c8.7,6.1,12.9,14.5,17,22.5
		c2.1,4.2,4.3,8.5,7.1,12.5c7.2,9.5,17.3,16.5,28.7,20c12,4.1,25.1,4.3,37.2,0.3c19-6.6,32.3-22.8,45.2-38.5l7.5-9
		c9-10.5,18.4-18.5,27.9-23.7c10.2-6.2,22.4-8.3,34.1-6c2.4,0.5,4.9,1.3,7.2,2c3.5,1.2,7.1,2.1,10.7,2.6c4.8,0.6,9.7,0,15-2
		c4.7-1.8,9.1-4.1,13.2-7c9-5.7,17.3-12.5,24.8-20.1c7.2-7.7,13-16.7,17-26.5c0.9-2.1,1.6-4.3,2.3-6.4l1.2-3.5
		c2.3-7.4,3.7-15.1,4.2-22.8c0.7-8,0.9-17.5,0.7-28.3v-2.7c-0.2-10.8-0.3-21.9,0.8-31.7c1.3-11,4.1-19,8.6-24.7
		c3.5-4.3,9.3-7,15.4-9.9c5.2-2.1,10-4.9,14.4-8.4c10.6-9.6,19.2-21.2,25.2-34.2c9.6-21.1,11.6-44.5,12.4-66.8
		c0.3-8.2,0.5-20.6-0.5-33.1c-1.4-21.2-7.6-41.9-17.9-60.5c-11.1-19.4-25.5-36.6-42.6-51C345,284,326,271.7,305.6,262.2
		c-5.7-2.7-11.6-5.2-17.2-7.7c-7.5-3.3-14.7-6.3-21.7-9.9c-19.6-10.6-38.1-23-55.3-37.2l-14.3-10.9c-10.9-8.4-22.5-15.7-34.8-21.9
		c-14.1-7.1-29.4-11.2-45.1-12.3c-9.2-0.2-18.4,1.2-27.1,4.3c-8.5,2.9-17.4,7.3-27.3,13.4c-4.4,2.7-8.8,5.7-13.3,8.8
		C33.3,200.6,17.5,213,2.2,226l-2.1,1.7"/>
	<path class="st0" d="M0.1,756.4l3.7-0.6c3.6-0.5,6.8-0.8,9.7-1c7.8-0.4,22.7,0.2,33.8,8.5c8.9,6.7,12.9,15.9,16.9,24.7
		c5.9,17,19.2,30.3,36.2,36.1c13,4.8,26.7,5.2,38.5,1.3c19.9-6.6,33.5-23.8,46.7-40.3l7.5-9.3c9-10.9,18.9-19.5,28.6-24.9
		c12.1-6.7,24-8.7,35.3-6c2.5,0.6,5,1.5,7.4,2.3c3.6,1.3,7.3,2.3,11.1,3c5.3,0.6,10.6,0,15.6-2c4.3-1.6,8.7-4.1,13.6-7.5
		c9-6.1,17.1-13.5,24.1-21.9c6.8-8.5,12.1-18.1,15.7-28.4c0.8-2.2,1.4-4.5,2.1-6.7l1.1-3.7c3.1-10.3,4.1-26.8,3.2-52.1v-0.8
		c-0.4-11.4-0.8-23.1,0.2-33.4c1.1-11.5,4-19.9,8.6-25.6c3.6-4.4,9.7-7.1,16.1-9.9c5.5-2.1,10.6-4.9,15.2-8.5
		c11.2-10,20.3-22.2,26.1-35.4c4.4-9.9,7.6-20.9,9.7-33.7c2-12.3,2.7-24.7,3.1-35.2c0.9-21.9,0.7-45.3-6-68
		c-2.9-9.6-7-19.3-12.2-28.6c-11.5-20-26.5-37.7-44.3-52.3c-17.8-14.9-37.5-27.3-58.6-37c-5.1-2.4-10.2-4.6-15.2-6.7
		c-8.5-3.6-16.5-7.1-24.3-11.2c-22.1-11.6-39.5-26.8-56.3-41.4l-12.9-11.1c-10.7-9.3-22.4-17.5-34.8-24.5c-13-7.4-27.4-12-42.2-13.6
		l-3.9-0.3c-8.9-0.3-18,1.2-27.6,4.5c-8.8,3.1-18,7.8-28.3,14.4c-4.5,2.9-9.1,6-13.7,9.3c-16.3,12-32.1,24.6-47.4,37.9l-1.8,1.5"/>
	<path class="st0" d="M0.1,764.1l4.5-0.8c3.7-0.6,6.9-0.9,10-1.1c8-0.5,23.2,0.1,34.4,9.2c9,7.2,12.8,17.1,16.6,26.7
		c2,5,4,10.2,6.7,15c14.9,23.6,43.4,34.6,70.3,27.2c20.9-6.8,34.8-24.8,48.3-42.2l7.5-9.6c12.2-15.1,36.9-39.2,65.5-31.7
		c2.6,0.7,5.1,1.6,7.6,2.5c3.7,1.3,7.6,2.7,11.5,3.3c9.5,1.4,19.4-1.9,30.4-10.1c20.5-14.7,34.8-36.6,39.9-61.3l0.9-3.7
		c3.2-12.8,2.5-34,1.4-53.2c-1.2-22.2-2.5-47.3,8.2-60c3.7-4.4,10-7,16.6-9.8c5.8-2.4,11.8-5,16.1-8.7
		c11.6-10.2,20.9-22.7,27.3-36.7c10.2-22.7,12.1-48.6,13.2-71.2c1-21.3,1.4-46.1-5.6-70.3c-2.9-10-7.1-20-12.5-29.6
		c-20.7-37-58.7-69.5-106.9-91.5c-4.5-2.1-9.1-4-13.6-5.9c-9-3.7-17.9-7.8-26.5-12.4c-22.6-12.4-40.1-29.3-57-45.6L203,181.2
		c-19.1-17.9-45.3-38.9-77.7-42.4l-4.8-0.4c-12.1-0.4-30.4,2.3-57.5,20.1c-4.6,3.1-9.4,6.4-14.2,9.9c-16.4,12-32.2,25.6-47.5,38.7
		L0.2,208"/>
	<path class="st0" d="M0.1,770.8l5-0.9c3.8-0.6,7.2-1,10.4-1.2c6.3-0.4,12.7,0.1,18.9,1.6c6.2,1.5,11.9,4.3,16.8,8.4
		c9.3,7.9,13,18.7,16.5,29.1c1.9,5.4,3.8,11,6.5,16.2c10.7,18.4,29.7,30.5,50.9,32.5c7.3,0.6,14.2-0.1,20.7-2.1
		c21.5-6.8,35.8-25.6,49.6-43.9c2.5-3.3,5-6.7,7.6-9.9c8.2-10.9,18.5-20.1,30.2-27.1c11.3-7,24.9-9.1,37.8-5.8
		c2.7,0.7,5.3,1.8,7.9,2.7c4.9,2.1,10.1,3.4,15.4,4c8.7,0.3,17.9-3.3,27.5-10.9c9.5-7.6,17-15.9,22.9-25.5
		c8.1-13.1,13.3-27.9,15.3-43.2c2.5-12.5,1.2-32.7-0.4-54c-0.9-11.8-1.6-24.2-0.8-34.9c0.9-11.9,3.7-20.5,8.5-26.1
		c5-4.6,11-8,17.5-10c6-2.4,12.3-4.9,16.8-8.8c12-10.3,21.6-23.2,28.1-37.7c10.2-22.8,12.3-48.6,13.5-73.1c0.6-11.4,1-23.7,0.4-36.2
		c-0.6-23.3-6.8-46.2-18.3-66.5c-12.2-21.2-28.4-39.9-47.6-55c-9.6-7.8-19.8-14.9-30.4-21.3c-10.5-6.3-21.4-12-32.6-17l-12.1-5.2
		c-9.6-4.1-19.5-8.3-28.6-13.5c-23.2-13.2-40.7-31.8-57.6-49.8L205.3,174c-10.5-11.2-22.1-21.2-34.8-29.8
		c-6.8-4.5-13.7-8.1-20.5-10.8c-8.9-3.5-18.3-5.6-27.8-6.2c-9.8-0.2-19.6,1.5-28.8,5c-9.4,3.5-19,8.6-30.2,16.2
		c-4.7,3.2-9.7,6.7-14.6,10.4c-16.4,12.5-32.3,25.6-47.7,39.4l-0.8,0.7"/>
	<path class="st0" d="M0.1,777.9l5.5-1.1c3.9-0.7,7.4-1.1,10.7-1.3c6.7-0.4,13.4,0.2,19.4,1.8c6.4,1.6,12.3,4.7,17.3,9
		c9.4,8.5,12.9,20.1,16.3,31.3c1.8,5.8,3.6,11.9,6.3,17.5c10.5,19.7,30,32.9,52.1,35.6c7.5,0.8,14.7,0.2,21.4-1.9
		c22.4-6.8,36.9-26.6,51-45.6l7.7-10.2c6.7-8.7,17.4-20.6,31-28.3c14.2-9,32.1-10,47.2-2.7c4,1.6,8,3.2,12.3,4
		c5.5,1,11.3,0.3,17.2-2.1c4.9-1.9,9.8-5,14.7-9.1c9.1-7.6,16.7-16.8,22.3-27.3c5.4-9.9,9.3-21,11.8-34l1.3-8.2l0.5-3.3
		c1.8-12.3-0.1-32.9-2-52.9l-0.2-2.1c-1.3-13.9-2-25.3-1.3-35.5c0.8-12,3.6-20.6,8.4-26.1c4-4.6,10.9-7.3,18.2-10.1
		c6.3-2.4,12.9-5,17.5-8.9c12.5-10.6,22.4-23.9,29.1-38.9c4.7-10.5,8-22.5,10.3-36.7c2.1-13.2,3-26.8,3.7-38.5
		c0.7-11.9,1.2-24.7,0.7-37.3c-0.3-24-6.6-47.6-18.4-68.5c-12.7-21.8-29.4-41-49.3-56.5c-10-8-20.5-15.2-31.5-21.7
		c-10.7-6.3-22-12.1-33.6-17.2l-10.9-4.6c-10.2-4.3-20.8-8.7-30.5-14.4c-23.7-13.9-41.1-34.2-58-53.9L207.8,166
		c-10.3-12.1-22-23-34.8-32.4c-6.5-4.6-13.4-8.5-20.6-11.7c-7.3-3.2-15-5.3-22.9-6.3l-5.8-0.5c-10-0.2-20,1.6-29.4,5.2
		c-9.7,3.7-19.6,9.1-31.2,17.1c-4.9,3.4-9.9,7.1-15,11C31.6,161,15.7,175.1,0.3,188.7l-0.1,0.1"/>
	<path class="st0" d="M0.1,785l6-1.2c4-0.7,7.6-1.2,11-1.4c6.7-0.5,13.5,0.1,20,1.9c7,1.9,13,5.2,17.7,9.6
		c4.5,4.4,8.1,9.7,10.4,15.5c2.3,5.8,4.2,11.8,5.7,17.9c1.7,6.3,3.4,12.8,6.1,18.8c6.5,14,17.7,25.3,31.6,32
		c6.8,3.4,14.2,5.7,21.8,6.7c7.7,1,15.2,0.4,22.1-1.6c23.2-6.9,38-27.4,52.4-47.4c2.5-3.6,5.1-7.1,7.8-10.6
		c6.8-9,17.8-21.4,31.8-29.4c12-7.6,26.7-9.6,40.3-5.6c2.8,0.9,5.6,2.1,8.3,3.2c4.1,1.7,8.3,3.5,12.6,4.3c13.4,2.5,25.2-5,32.8-11.7
		c17.4-15.4,28-36.7,32.3-65c0.5-3.1,0.8-6.3,1.1-9.4l0.2-2.5c1.1-11.2-0.9-28.7-3-47.3l-1-8.6c-1.5-11.9-2.1-24-1.8-36
		c0.7-12.2,3.4-20.7,8.3-26.2c4.2-4.7,11.3-7.3,18.9-10.1c6.6-2.5,13.5-5,18.3-9c13-10.9,23.4-24.7,30.1-40.1
		c4.7-10.8,8.2-23.1,10.5-37.7c2.1-13.3,3-26.9,3.8-39.7c1.6-26.2,2.4-51.7-4.3-76.6c-3-11-7.4-21.8-13.3-32.2
		c-13-22.4-30.3-42-50.9-57.6c-20.6-16.1-43.2-29.4-67.3-39.4l-9.8-4.1c-10.8-4.5-22.1-9.1-32.3-15.3
		c-24.1-14.6-41.4-36.6-58.2-57.8L210,158.7c-10.2-13-21.9-24.7-34.8-35c-6.9-5.2-13.9-9.5-20.8-12.7c-9.3-4.3-19.3-6.8-29.5-7.4
		c-10.3-0.3-20.5,1.6-30,5.5c-10,3.8-20.2,9.6-32.1,18c-5,3.6-10.2,7.4-15.4,11.5c-16.3,12.8-32,26.2-47.3,40.2"/>
	<path class="st0" d="M0.1,792.5l6.5-1.4c3.7-0.7,7.4-1.3,11.2-1.6c13.9-1.6,27.8,2.8,38.3,12c9.4,9.3,12.5,21.4,15.6,34.3l0.8,3.4
		c1.5,6,3,12.1,5.4,17.8c6.4,15,17.9,27.2,32.4,34.6c13.8,7.8,30.1,9.9,45.5,6c24.2-7,39.4-28.5,54.1-49.3l7.8-10.9
		c10.7-14.6,39.4-47.2,73.6-36c2.9,0.9,5.8,2.2,8.5,3.4c4.2,1.8,8.6,3.7,13.1,4.6c15,2.9,27.8-6.5,34.1-12.4
		c17.2-16,27.2-38.6,30.5-68.9c0.4-4,0.6-8,0.8-12v-0.4c0.5-10.2-1.6-26-3.8-42.7l-1.9-14.2c-3.2-25.6-4.7-50.9,5.9-62.5
		c5.6-4.8,12.2-8.2,19.4-10c7-2.5,14.2-5,19.3-9.2c13.5-11.2,24.2-25.3,31.2-41.4c10.3-23.6,12.8-50,14.7-79.6
		c1.8-28.2,2.8-53.6-3.9-79c-3-11.3-7.6-22.5-13.6-33.2c-30.4-54.3-89.6-85.5-122.3-99.2l-8.8-3.6c-11.4-4.7-23.2-9.5-33.8-16.2
		c-24.4-15.2-41.5-38.8-58.1-61.7l-9.7-13.2c-17.1-22.8-43.9-53.7-79.5-58.8l-6.9-0.6c-25-0.9-47.2,12.5-64,24.7
		c-5.1,3.7-10.5,7.8-15.9,12.1c-16,12.8-31.5,26.8-46.6,40.4"/>
	<path class="st0" d="M0.1,799.1l6.9-1.6c4.2-0.8,8-1.4,11.6-1.7c7.3-0.6,14.6,0.2,21.1,2.1c13.9,3.9,24.8,14.5,29,28.3
		c2.3,6.4,3.8,13.4,5.3,20.2c1.5,7.2,3.1,14.5,5.7,21.4c3,7.8,7.5,15,13.1,21.2c11.3,12.3,26.3,20.7,42.8,23.7
		c8.2,1.3,16.1,0.9,23.4-1.2c24.9-7,40.3-29.3,55.3-50.9c2.6-3.7,5.2-7.6,7.9-11.2c7-9.7,18.5-23.1,33.3-31.7
		c12.7-8.2,28.4-10.2,42.8-5.5c3,1,5.9,2.4,8.8,3.7c4.3,2,8.8,4,13.4,4.9c6.1,1.2,12.5,0.5,18.9-2.1c5.9-2.5,11.3-6.2,15.8-10.7
		c16.7-16.3,26.3-40.6,28.5-72.3c0.3-4.6,0.4-9.2,0.4-12.7c0.1-9.4-2.2-23.6-4.5-38.6l-2.9-19.2c-3.5-24.7-5.6-51.6,5.4-63.4
		c4.5-4.8,12.2-7.4,20.3-10.2c7.2-2.5,14.7-5,19.9-9.3c13.9-11.3,25-26,32.1-42.4c4.9-11.2,8.5-24.2,10.9-39.6
		c2.1-13.4,3.1-26.9,4.2-41.9c1-14.3,1.8-27.3,1.6-40.5c-0.3-15.2-1.9-28.4-5.1-40.5c-3-11.6-7.7-23.1-13.8-34
		c-13.8-23.6-32.2-44.1-54.2-60.3c-11-8.4-22.7-16-34.8-22.8c-12-6.6-24.3-12.6-36.9-17.8l-8.2-3.3c-11.9-4.8-24.1-9.7-35.1-16.9
		c-24.6-15.9-41.6-41-58-65.2l-9.7-14.3c-9.9-14.8-21.6-28.3-34.8-40.2c-7-6-14.1-10.9-21.2-14.6c-9.7-5-20.2-7.9-31.1-8.6
		c-10.7-0.3-21.4,1.8-31.3,5.9c-12.1,5.1-23.6,11.8-34,19.9c-5.3,3.9-10.7,8.1-16.3,12.6c-15.9,12.9-31.3,27-46.3,40.7"/>
	<path class="st0" d="M0.1,145.8l0.7-0.6c26-23.5,42.3-37.4,61.3-50.9c17.8-12.7,41-26.5,66.9-25.6c3.1,0.1,6.3,0.4,9.5,1
		c27.3,4.8,53.4,26.6,79.7,66.9l8.8,13.7l9.9,15.4c13,19.8,27.9,40,48.6,53.8c11.6,7.7,24.5,12.9,37,18l6.4,2.6
		c40.6,16.7,95.3,46.9,125.7,96.2c7.4,11.9,13,24.8,16.7,38.3c7.5,27.7,5.7,56.3,4.2,81.5c-1.7,27.6-4.2,56.7-14.3,82.3
		c-7.7,18.7-18.9,35.8-33.1,50.3c-5.4,5.6-13.5,9.4-21.2,13.1c-8,3.8-15.6,7.4-20.6,12.8c-13.6,14.7-7.8,53-3.2,83.8
		c2,13.6,4,26.4,3.9,35.2c-0.3,38.9-9.9,68-28.4,86.3c-9.7,9.7-23.4,14-36.9,11.6c-4.8-0.8-9.4-2.7-13.8-4.6c-2.9-1.2-5.9-2.5-9-3.4
		c-4-1.2-8.2-2-12.3-2.1c0,0-32.3,3.5-64.2,43c-1.5,1.8-9.3,11.2-12.7,15.9l-2.3,2.9c-5.2,6.1-28.5,31.6-37.4,37.6"/>
	<path class="st0" d="M0.1,806.2c6.3-1.7,12.8-2.9,19.3-3.6c7.5-0.6,14.9,0.2,21.6,2.2c14.4,4.1,25.6,15.4,29.5,29.9
		c2.3,6.8,3.7,14.2,5.1,21.4c1.4,7.6,2.9,15.4,5.5,22.7c6.9,18.3,20.6,33.2,38.2,41.7"/>
	<path class="st0" d="M0.1,809.5c3.8-0.7,8.1-1.4,12.4-1.7c14.7-1.5,29.4,3.3,40.3,13.2c10.3,10.3,13.5,24,16.8,38.4l2.5,10.3
		c5.3,21.6,19.3,40,38.8,50.7"/>
	<path class="st0" d="M0.1,142.3l0.7-0.7c19.6-18.4,40.3-35.6,62-51.5c18-12.8,41.4-26.8,67.6-25.8c3.2,0.1,6.4,0.4,9.6,1
		c27.6,4.8,54,26.9,80.5,67.6l8.9,13.8l10,15.6c13.2,20,28.2,40.4,49.1,54.3c11.7,7.8,24.8,13.1,37.4,18.2l6.5,2.6
		c41,16.8,96.3,47.4,127.1,97.2c7.5,12,13.2,25.1,16.9,38.7c7.6,28,5.8,56.9,4.2,82.3c-1.7,27.9-4.3,57.3-14.5,83.1
		c-7.8,18.9-19.1,36.2-33.4,50.8c-5.5,5.7-13.6,9.5-21.5,13.3c-7.7,3-14.7,7.3-20.8,12.9c-13.7,14.9-7.9,53.6-3.3,84.7
		c2.1,13.7,4,26.7,3.9,35.6c-0.3,39.4-10,68.7-28.7,87.2c-11,10.9-24.3,15.9-36.3,13.8c-4.8-0.8-9.4-2.8-13.9-4.6
		c-3-1.2-6-2.5-9.1-3.4c-4.1-1.3-8.3-2-12.4-2.1c0,0-33.7,1.5-65.8,41.3c-1.5,1.9-9.4,11.3-12.9,16l-2.3,2.9
		c-5.3,6.2-23.6,27.3-32.6,33.4"/>
	<path class="st0" d="M0.1,812.9l5.8-0.5c7.5-0.4,15,0.5,21.6,2.4c14.2,3.9,25.6,14.3,30.9,28c2.8,6.4,4.7,13.4,6.6,20.1l2.8,9.7
		c3.3,12.2,9.5,23.3,18.1,32.5c5.5,6,11.9,11.1,18.9,15.4"/>
	<path class="st0" d="M178.4,920.5c3.5-2.3,7-5.1,10.6-8.2c10.2-9,19.2-20.3,28-31.1l5.4-6.7c10-12.2,20-21.9,30-28.8
		c10.7-8.1,23.6-12.7,37-13.2c4.2,0,8.4,0.5,12.6,1.6c3.1,0.8,6.2,1.9,9.2,3c4.5,1.6,9.1,3.3,13.9,4c6.4,0.9,13-0.1,19.6-2.9
		c6.2-2.7,11.8-6.4,16.6-11.1c10.7-10.7,18.6-23.9,22.9-38.4c4.2-13.1,6.8-28.7,7.7-46.2c0.4-8.9-1.1-22-2.6-35.8
		c-1.7-15.1-3.7-32.2-3.5-47.1c0.2-17.1,3.3-28.7,9.4-35.5c6.1-6,13-11.1,20.5-15.2c8.2-5,16.7-10.3,22.3-17.4l2.7-3.6
		c10.3-14.1,23.2-33,30.8-54.1c4.3-11.8,7.4-25,9.7-40.2c1.9-14,3.2-28,3.8-42.1c1.4-29.1,2-55.4-5.4-81.2
		c-3.9-13.4-9.6-26.2-17.2-38c-30.5-48.1-85.6-78.5-126.4-95.4l-5.8-2.4c-13.3-5-26.1-11.3-38.2-18.8c-10.2-6.9-19.3-15.1-27.3-24.5
		c-8.1-9.5-15.6-19.5-22.4-29.9L231.7,145l-8.5-13.2c-9.9-15.6-21.7-30-35-42.9c-6.5-6.1-13.6-11.4-21.3-15.9
		c-10.7-6.1-22.7-9.7-35-10.4c-3.4-0.1-6.8,0-10.2,0.3c-7,0.8-13.8,2.3-20.4,4.6C88.1,72.4,75.5,79,64,87.1
		c-22.3,15.7-43.6,32.8-63.7,51.2"/>
	<path class="st0" d="M0.1,817.6c7.1-0.2,14.2,0.6,21,2.5c7.1,2,13.7,5.5,19.3,10.4c10.9,9.8,15.1,22.6,19.6,36.3l3.1,9.1
		c3.7,11.9,10.2,22.7,19,31.5c4.8,4.9,10.1,9.3,15.8,13.1"/>
	<path class="st0" d="M181.2,920.5l5.9-4.5c10.9-8.9,20.7-20.2,30.3-31.1l3.2-3.6c9-10.7,19.3-20.3,30.6-28.5c6-4.2,12-7.5,17.8-9.9
		c10.1-4.1,21.1-5.2,31.8-3.1c3.1,0.7,6.3,1.6,9.3,2.5c4.5,1.4,9.2,2.8,14,3.3c6.4,0.7,13.1-0.4,19.7-3.3
		c6.2-2.7,11.9-6.5,16.9-11.1c5.3-4.9,10-10.7,14-17.2c3.7-6,6.9-12.8,9.5-20.2c4.5-12.7,7.5-27.4,9.2-45c0.9-9-0.2-22.2-1.3-36
		c-1.5-15.1-2.1-30.2-1.8-45.4c0.8-16.5,4.1-27.8,10.1-34.6c5.6-6.3,12.7-11.7,19.6-16.8c8.8-6.6,17.9-13.4,23.6-22.3l2.6-4.2
		l2.6-4.3c10.2-16.9,21.8-36,28.6-56.4c7.9-26.5,12.1-54,12.4-81.7c0.5-12.8,0.9-26.5,0.1-40.3c-0.7-27.5-9-54.4-24.1-77.4
		c-14.8-21.9-33.7-40.8-55.6-55.7c-22-15.2-45.6-28-70.4-38.1l-5.1-2.1c-13.1-5.5-26.7-11.2-39-19.4c-21.5-14.4-37.4-35.6-50.2-54.3
		l-11.2-16.9l-8.2-12.5c-10-15.7-21.8-30.1-35.2-43c-7-6.5-14.2-11.9-21.3-16.1c-11.2-6.5-23.8-10.3-36.7-10.9
		c-10.1-0.3-20.2,1.2-29.8,4.4c-12,3.8-24.6,10-38.5,19.1C42,99.1,20.4,115.8,0.1,134"/>
	<path class="st0" d="M78.5,909.7c-8.7-8.6-15.5-19-19.8-30.5l-3.3-8.4c-5.1-13.2-9.9-25.7-21.1-35.2c-9.7-7.8-21.7-12.2-34.2-12.6
		v0.1c12.4,0.4,24.4,4.8,34.2,12.4c11.2,9.5,16,21.9,21.1,35.1l3.3,8.4c1.6,3.9,3.2,7.3,4.8,10.4C67.4,896.9,72.4,903.8,78.5,909.7
		c3.8,4,8,7.6,12.6,10.8"/>
	<path class="st0" d="M184.8,920.5l1.1-0.8c11.8-9.6,22.9-20.1,33-31.5c9.4-10.5,19.9-19.9,31.2-28.3c5.6-4,11.6-7.4,17.9-10.1
		c9.9-4.6,21-6.1,31.8-4.2c3.2,0.5,6.3,1.3,9.4,2.1c4.5,1.1,9.2,2.3,14,2.6c6.8,0.3,13.6-0.9,19.8-3.6c6.3-2.7,12.1-6.5,17.1-11.1
		c5.5-4.9,10.2-10.5,14.2-16.7c3.8-5.8,7.1-12.5,9.9-19.7c5.2-14.1,8.8-28.8,10.6-43.8c1.3-9.2,0.7-22.4,0.2-36.3
		c-0.6-14.7-1.2-29.9-0.1-43.8c1.3-15.9,4.9-26.9,10.8-33.8c5.5-6.4,12-12.1,18.3-17.6c10-8.8,19.5-17.1,25.4-28l2.5-4.7
		c2.6-5.2,5.3-10.4,8.1-15.5c9.4-16.5,17.3-33.8,23.5-51.7c3.9-13,6.7-26.3,8.4-39.8c1.6-12.5,2.6-26,3-41.3
		c0.3-14.9,0.4-27.3-0.5-39.9c-0.8-13.4-3.2-26.6-7.1-39.4c-4-12.8-10-25.1-17.8-36.8c-7.3-10.7-15.7-20.6-25-29.6
		c-9-8.7-19.3-17-30.7-24.9c-22-14.9-45.4-27.5-69.9-37.6l-4.2-1.8c-13.4-5.7-27.3-11.6-39.8-20c-10.2-7-19.5-15.2-27.6-24.5
		c-8.3-9.4-16-19.3-23-29.7l-11.8-17.6l-7.8-11.8c-10.1-15.6-22-30.1-35.3-43.1c-7-6.6-14.2-12-21.3-16.2
		c-11.7-6.9-24.8-10.9-38.4-11.6c-9.8-0.2-19.6,1.1-29,3.9c-14,4.3-27.4,10.5-39.7,18.5c-23.2,14.8-45.2,31.3-65.9,49.4"/>
	<path class="st0" d="M0.1,829.4c10.2,1.3,19.9,5.2,28.2,11.4c11.5,9.2,16.9,21.3,22.5,34.1l3.5,7.7c6.6,15.1,17,28.1,30.2,37.9"/>
	<path class="st0" d="M189.4,920.5c9.9-7.5,19.2-16.5,27.9-25.2c19.7-19.7,42.9-40.9,68.9-43.7c4.2-0.5,8.4-0.4,12.6,0.1
		c3.2,0.4,6.4,1,9.6,1.7c4.5,1,9.2,1.7,13.8,2h0.2c6.5,0.2,13.2-1.1,19.9-4c6-2.6,12-6.4,17.4-11c23.5-20.3,32-52.4,36.8-78
		c1.7-9.3,1.7-22.6,1.7-36.6c-0.1-27.9-0.1-59.6,13-75.1c5.2-6,10.7-11.8,16.5-17.3c11.1-11,21.6-21.4,27.7-34.8
		c0.7-1.6,1.6-3.4,2.3-5.3c3.3-7.7,7.1-15.5,11.1-23.8c7.8-16,15.8-32.5,20.8-49.9c6.6-23,10-49.3,10.4-80.4
		c0.3-25.4-0.2-52.5-8.8-78.4c-4.3-12.8-10.4-25-18.1-36.2c-7.3-10.5-15.8-20.3-25.1-29.1c-9.5-8.9-19.8-17.1-30.6-24.4
		c-21.9-14.6-45.1-27-69.4-37.1l-3.2-1.4c-13.8-5.9-28-12.1-40.8-20.7c-10.2-7-19.5-15.3-27.8-24.5c-8.4-9.4-16.2-19.3-23.3-29.7
		l-12.4-18.2l-7.5-11.1c-10.2-15.6-22-30.1-35.4-43.1c-6.5-6.2-13.6-11.7-21.3-16.4c-13.8-8.8-30-13-46.4-12.3
		c-7.4,0.3-14.7,1.4-21.9,3.3c-14.4,3.9-28.1,9.9-40.8,17.8c-23.6,14.6-46,31-67.1,49"/>
	<path class="st0" d="M0.1,836.2l2.7,0.7c7.1,1.9,13.8,5,19.7,9.3c11.9,8.9,17.8,20.6,24.1,33c2.8,5.7,5.8,11.2,9,16.6
		c5.6,9,13.3,17.4,22.3,24.7"/>
	<path class="st0" d="M195,920.5c7.6-5.8,14.6-12.1,20.9-18l0.3-0.3c9.7-9,20.7-19.3,32.2-27.5c10.9-8.3,23.6-14,37.1-16.6
		c4.2-0.6,8.4-0.8,12.7-0.5c3.3,0.2,6.6,0.7,9.8,1.2c4.6,0.8,9.2,1.3,13.9,1.4c13.9-0.6,27.2-6,37.6-15.4
		c10.9-9.5,19.6-21.3,25.4-34.5c5.8-13.3,10.3-27.1,13.5-41.3c2.2-9.5,2.8-22.8,3.3-36.9c1-26.7,2.2-57,15.2-72.5
		c4.5-5.4,9.3-10.6,13.9-15.7c12.5-13.6,24.4-26.5,30.8-42.9l2.2-5.8c3.6-9.9,8.1-20,13-30.7c7.2-16,14.7-32.5,19.3-49.7
		c6.2-23.3,9.4-50.2,9.3-79.8c-0.1-23.9-0.9-51.5-10-77.4c-4.4-12.7-10.6-24.7-18.4-35.6c-7-9.9-15.4-19.5-25.2-28.5
		c-9.6-8.7-19.8-16.7-30.6-23.9c-21.8-14.2-44.9-26.4-68.9-36.6l-1.2-0.5c-14.9-6-29.2-13.3-42.8-21.9
		c-22.4-15.2-39.3-36.9-51.5-54.1c-4.4-6.2-8.8-12.7-13-18.9l-7.1-10.4c-10.3-15.6-22.2-30.1-35.5-43.2
		c-6.5-6.2-13.6-11.8-21.3-16.5c-14-8.8-30.3-13.3-46.8-13c-7.2,0.1-14.7,1.1-22.4,2.9c-14.8,3.8-29,9.7-42.1,17.4
		c-24.1,14.3-47.1,30.5-68.5,48.6"/>
	<path class="st0" d="M0.1,843.6c5.9,1.8,11.5,4.5,16.6,8c12.3,8.6,18.8,20.1,25.8,32.2c2.9,5.2,6,10.4,9.4,15.3
		c5.2,7.7,12,14.9,19.6,21.4"/>
	<path class="st0" d="M201.5,920.5c4.1-3.2,8.4-6.7,13-10.7l5-4.3c19.2-16.9,41-36.1,65.3-40.5c4.1-0.8,8.4-1.1,12.7-1
		c3.3,0.1,6.7,0.4,10,0.7c4.5,0.4,9.1,0.9,13.9,0.7c14-1.1,27.3-6.6,38-15.7c11-9.2,19.8-20.6,26-33.5c6.2-12.9,11.2-26.3,14.9-40.1
		c2.8-9.6,3.9-23,5-37.2c2.1-25.5,4.5-54.4,17.3-70l10.5-12.4c14.4-16.8,28-32.6,34.7-52.6l2.1-6.4c3.6-11.8,8.8-23.9,14.3-36.6
		c7-16.2,14.1-33,18.4-50.2c5.9-23.9,8.7-50.5,8.3-79.2c-0.4-20.4-1.4-31.4-2.3-38.7c-1.5-12.9-4.4-25.6-8.8-37.8
		c-4.6-12.5-10.9-24.2-18.7-35c-7.4-10.2-15.9-19.5-25.3-27.9c-9.6-8.5-19.8-16.3-30.5-23.3c-21.8-13.9-44.7-26-68.5-36
		c-15.4-6.2-30.1-13.8-44.1-22.8c-20.3-14.9-37.9-33.2-52-54c-4.6-6.4-9.2-13.1-13.6-19.6l-6.7-9.7C230,111.1,218,96.6,204.7,83.4
		c-7-6.7-14.2-12.3-21.3-16.7c-20.8-13.3-46.1-17.4-70-11.4C98.2,58.7,83.6,64.4,70,72c-24.7,14-48.1,30.2-69.9,48.3"/>
	<path class="st0" d="M0.1,851.9c3.7,1.5,7.3,3.3,10.6,5.5c12.7,8.3,19.9,19.4,27.5,31.2l3.3,5l6.3,9c4.8,6.4,10.4,12.4,16.5,17.8"
		/>
	<path class="st0" d="M209.7,920.5l3.8-3.1l9.4-7.8c18.2-15.3,38.9-32.6,61.3-37.5c7.5-1.7,15.2-2.1,22.8-1.2
		c4.5,0.2,9.1,0.4,13.8,0.1c14.2-1.5,27.6-7.1,38.6-16.1c11.1-9,20.2-20.1,26.8-32.7c6.6-12.5,12-25.5,16.3-38.9
		c3.4-9.9,5.1-23.4,6.9-37.7c3.1-24.2,6.6-51.7,19.1-67.2l5.7-7c16.9-20.7,32.9-40.2,40.1-64.7l1.9-6.9c3.5-13.6,9.2-27.4,15.1-42
		c7.3-16.7,13.3-33.9,17.9-51.5c5.6-24.3,8.1-50.8,7.3-78.6c-0.8-24.6-2.8-50.8-12.3-75.7c-4.8-12.3-11.2-23.9-19.1-34.5
		c-29.9-40.2-79.5-65.9-124.1-85.8c-16.8-7.5-30.7-14-44-23.1c-20.4-14.8-38.1-33-52.3-53.9c-4.9-6.7-9.6-13.5-14.3-20.3l-6.2-8.9
		C223.6,95.8,197.8,64.2,163,54c-7.2-2.1-14.7-3.3-22.2-3.5c-21.2-0.8-44.5,5.3-69.4,18.3c-25.2,13.7-49,29.7-71.3,47.8"/>
	<path class="st0" d="M0.1,859.7c1.8,0.9,3.6,1.8,5.2,2.9c13.3,8.2,21.2,19.1,29.6,30.6l2.9,3.9l6.7,8.6c4.2,5.1,9,10.1,14.2,14.8"
		/>
	<path class="st0" d="M217,920.5l8.6-6.9c18.2-14.7,37-29.8,57.9-35.2c4.1-1.1,8.4-1.7,12.7-2c3.5-0.2,7.1-0.2,10.6-0.2
		c4.4,0,9,0,13.6-0.5c14.1-1.9,27.5-7.5,38.7-16.4c11.1-8.7,20.4-19.4,27.4-31.6c6.9-12,12.8-24.6,17.7-37.6c4-10,6.3-23.6,8.9-38
		c2.1-11.8,4.2-24.1,7.4-35.4c2.6-10.6,7.2-20.5,13.6-29.3c9.1-11.4,19.5-24.3,27.8-37.4c8.3-12.4,14.5-26.2,18.4-40.6l1.8-7.5
		c3.4-15.3,9.4-30.7,15.8-47c6.7-17.1,13.7-34.9,17.6-53c5.4-25.6,7.5-51.8,6.3-77.9c-0.5-12.7-1.7-25.3-3.6-37.9
		c-1.9-12.6-5.2-24.9-9.9-36.7c-4.9-12.1-11.4-23.4-19.3-33.8c-15.6-19.5-34.6-36.1-56-49c-21.7-13.2-44.2-24.9-67.5-35
		c-15.4-6.5-30.1-14.3-44.1-23.4c-10.3-7.2-19.9-15.5-28.5-24.6c-8.7-9.3-16.9-19.1-24.4-29.3c-5.1-6.9-10.1-13.9-15-21l-5.8-8.2
		c-10.6-15.6-22.6-30.1-35.9-43.4c-12.6-13-28.1-22.8-45.3-28.5c-7.9-2.4-16.1-3.8-24.3-4.1c-21.2-0.8-44.3,5-69,17.4
		C47.4,80.1,22.9,96.1,0.1,114.3"/>
	<path class="st0" d="M0.1,868.3c12.2,7.8,22.8,17.8,31.3,29.6l2.4,3l7,8.3c3.5,3.9,7.3,7.7,11.3,11.4"/>
	<path class="st0" d="M225.7,920.5l2.9-2.3c17.2-13.5,35-27.4,54.5-33.1c4.1-1.2,8.4-2.1,12.8-2.6c3.7-0.4,7.4-0.6,11-0.8
		c4.3-0.2,8.8-0.4,13.4-1.1c14.2-2.3,27.6-8,39-16.7c11.2-8.4,20.6-18.8,28-30.7c7.2-11.6,13.6-23.8,19.1-36.3
		c4.7-10.3,7.7-24,11-38.5c2.5-11.3,5.2-22.9,8.7-33.7c4-12.2,8.6-21.5,14-28.4c10.5-12.8,20-26.3,28.7-40.4c8.9-15,14.7-29.4,18-44
		l1.7-8c3.2-16.8,9.6-33.7,16.4-51.6c6.7-17.8,13.7-36.2,17.5-54.9c5-25.4,6.7-51.4,5.2-77.3C527,394.9,522,370,513,346.5
		c-5-11.8-11.6-22.9-19.7-33.2c-13.7-17.4-32-33-56.1-47.9c-21.6-12.9-44-24.4-67-34.5c-15.4-6.5-30.2-14.5-44.1-23.7
		c-20.6-14.9-38.6-33.1-53.3-53.8c-5.4-7.1-10.7-14.6-15.8-21.8l-5.3-7.4c-9.3-13-21.7-29.7-36-43.5c-12.7-13-28.2-22.9-45.3-28.8
		c-8.6-2.8-17.6-4.3-26.6-4.6c-7.1-0.3-14.5,0.2-22,1.4c-15,2.2-30.8,7.3-47,15.1C48.4,77.1,23.4,93.1,0.1,111.4"/>
	<path class="st0" d="M0.1,877.6c11.2,7.2,19.4,16.2,28.1,25.7l1.4,1.6l7.4,7.9c2.6,2.7,5.3,5.3,8,7.8"/>
	<path class="st0" d="M235.6,920.5c15-11.4,30.4-22.7,47.1-28.1c7.8-2.6,15.9-4,24.1-4.4c4.2-0.4,8.6-0.8,13.1-1.6
		c14.3-2.7,27.8-8.6,39.6-17.1c23.1-16.4,37-41.1,49.3-64.9c5.4-10.6,9.3-24.5,13.4-39.2c6-21.6,12.2-43.9,24.1-59.1
		c20.4-26,40.2-55.1,47.2-91.1l1.5-8.6c3.8-19.1,9.4-37.9,16.8-55.9c7.4-18.6,13.2-37.7,17.5-57.2c4.6-24.8,6.1-51.3,4.2-76.7
		c-1.1-25-6.4-49.6-15.8-72.8c-5.2-11.7-11.9-22.7-20-32.7c-31.4-38.7-82.1-62.1-122.8-80.9c-17-7.8-30.9-14.9-44.1-24
		c-20.6-15-38.7-33.1-53.7-53.7c-5.6-7.4-11.1-15.1-16.5-22.5l-4.8-6.7c-10.8-15.6-22.9-30.1-36.2-43.6
		c-12.7-13.1-28.3-23.2-45.5-29.4c-9.3-3.1-19-4.9-29.1-5.3c-21.2-0.8-44.2,4.5-68.7,15.7c-27,13.1-52.5,29-76.2,47.3"/>
	<path class="st0" d="M0.1,885.7c9.8,6.6,17.7,14.4,25.9,22.5l7.8,7.6c1.7,1.6,3.4,3.2,5.1,4.7"/>
	<path class="st0" d="M244.5,920.5c12-8.8,24.5-17,37.6-21.8c4.1-1.5,8.4-2.7,12.8-3.6c4-0.8,8.1-1.4,12-2c4.1-0.6,8.3-1.2,12.6-2.1
		c13.2-2.7,27.3-8.9,39.7-17.4c11.3-8,21.2-17.6,29.4-28.7c7.9-10.8,15.2-22.1,21.8-33.8c6.3-10.8,11-24.9,15.9-39.9
		c6.8-20.3,13.8-41.2,25.4-56.2c13-16.8,22.9-32,30.4-46.5c8.7-17,14.3-33.6,17.3-50.8l1.4-9.1c2.7-19.7,9.7-39.3,17.1-60.1
		c6.9-19.3,14-39.3,17.5-59.6c6.3-37.4,5.6-75.6-2.2-112.7c-2.9-13-6.6-24.4-11.5-35.1c-5.3-11.5-12.2-22.3-20.3-32
		c-15.6-18-34.2-33.2-55-45c-21-12.1-42.6-23.1-64.8-33l-2.5-1.2c-15.4-6.8-30.2-15-44.2-24.4c-10-7-19.5-15-29.1-24.7
		c-9-9.1-17.4-18.8-25.2-29c-7.4-9.6-14.6-19.3-21.5-29.2c-10.9-15.6-23-30.2-36.3-43.7c-12.7-13.1-28.2-23.3-45.3-29.8
		c-10-3.5-20.6-5.5-31.2-5.8c-6.2-0.2-12.6,0-19.2,0.8c-17,2.2-33.5,6.9-49.1,14C50.5,71.3,24.4,87.2,0.1,105.7"/>
	<path class="st0" d="M0.1,894.1c7.8,5.3,14.7,11.3,22,17.7l2.9,2.6l5.3,4.6l1.7,1.4"/>
	<path class="st0" d="M254.6,920.5c8.4-6,17.5-11.1,27-15.1c4.1-1.6,8.4-3,12.8-4.1c4.2-1.1,8.6-1.9,12.8-2.7
		c18.7-2.7,36.5-9.7,52.1-20.2c11.4-7.7,21.5-17.1,30.1-27.8c8.3-10.4,16-21.3,23.1-32.6c7.6-13,13.9-26.7,18.9-40.9
		c7.4-18.9,15-38.4,26.3-53c12.1-15.4,22.6-32,31.2-49.6c8.6-18,14.2-35.7,16.9-54.2l1.3-9.7c2.4-21.1,9.7-42,17.4-64.1
		c7-20.1,14.3-40.9,17.6-62.1c5.8-37.1,4.5-75-3.8-111.6c-3.1-12.7-7-24-12.1-34.5c-5.5-11.3-12.4-21.9-20.6-31.4
		c-15.1-16.9-32.8-31.2-52.4-42.4c-19.7-11.8-40.9-21.7-61.5-31.4l-7.9-3.7c-15.4-7-30.2-15.3-44.2-24.7
		c-20.8-15.1-39.2-33.1-54.7-53.6c-6.2-7.8-12.2-16.1-18-24.1l-3.7-5.1c-10.9-15.6-23.1-30.2-36.4-43.8
		c-12.8-13.2-28.2-23.5-45.3-30.3c-16.4-6-33.9-8-51.2-5.9C113,43.9,96,48.4,80,55.4C51.7,68.2,25,84,0.2,102.7"/>
	<path class="st0" d="M0.1,902.1c5.9,3.9,11.8,8.4,18,13.4l6.3,5"/>
	<path class="st0" d="M265.3,920.5c12.9-8.1,27.3-13.7,42.3-16.5l11.2-2.7c13.8-3.7,27.8-10,40.4-18.1c23.5-15.1,40.2-37,55.3-58.2
		c8.7-13.3,16.2-27.5,22.2-42.2c7.9-17.3,16-35.3,26.8-49.5c13.7-18,24.2-35.2,32.1-52.7c8.4-18.2,14-37.7,16.5-57.6
		c0.5-3.7,0.8-7.1,1.1-10.2c2.1-22.4,9.6-44.6,17.6-68c7.2-21,14.6-42.7,17.7-64.8c3.6-24.9,4-50.7,1.2-74.7
		c-2.2-24.2-8.7-47.9-19.2-69.8c-5.6-11.1-12.6-21.5-20.9-30.8c-28.3-32-69.1-51.2-108.6-69.8l-12.8-6.1
		c-15.4-7.1-30.2-15.4-44.2-25c-19-13.4-37-30.9-55-53.6c-6.4-8.1-12.7-16.6-18.8-24.8l-3.2-4.3c-22.5-30.5-47.4-61.4-81.8-74.6
		c-12-4.6-24.2-6.7-36-7.2c-25.5-0.9-49.6,6-67.6,13.3C52.7,65.3,25.4,81.1,0.1,99.9"/>
	<path class="st0" d="M0.1,909.4c5,3.1,9.7,6.4,14.1,9.6l2,1.5"/>
	<path class="st0" d="M0.1,916.1L0.1,916.1l6.9,4.3"/>
	<path class="st0" d="M277,920.5l3.6-1.8c4-1.9,8.3-3.6,12.9-5.2c5-1.7,9.8-3,15-4.4l10.1-2.9c14.3-4.3,28.1-10.5,40.8-18.4
		c24-14.8,41.5-35.8,57.4-55.9c9.7-12.4,17.7-27.8,26.2-44.1c7.6-15.8,16.5-31,26.6-45.3c13.2-17.2,24.2-35.9,32.9-55.7
		c8.3-19.4,13.8-40,16.2-61c0.4-3.9,0.8-7.4,1-10.8c1.7-23.7,9.6-47.1,17.8-71.8c7.3-21.9,14.9-44.5,17.9-67.5
		c1.6-12.2,2.4-24.6,2.5-36.9c0.2-24.6-3-49-9.5-72.7c-3.2-11.6-7.6-22.8-13.2-33.4c-5.8-10.9-12.9-21.1-21.2-30.2
		c-27.5-30.1-66.2-48.4-103.7-66.1l-17.3-8.2c-17.9-8.6-32-16.7-44.3-25.3c-20.9-15.2-39.6-33.2-55.6-53.5
		c-6.7-8.3-13.3-17.2-19.7-25.7l-2.5-3.4c-11.1-15.5-23.4-30.2-36.7-43.9c-12.8-13.4-28.2-24-45.3-31.2c-16.8-6.7-35-9.3-53-7.7
		c-18.1,1.4-35.9,5.6-52.7,12.4C53.8,61.3,27,78.4,0.1,96.9"/>
	<path class="st0" d="M290.5,920.5l2.4-0.9c5.5-2.1,10.8-3.8,16.5-5.6l8.7-2.8c27.5-8.6,52.6-23.5,73.3-43.5
		c9.5-9.2,18.6-18.8,27.2-28.9c11.8-14.7,22.2-30.4,31.2-47c8-13.7,16.2-27.8,25.4-40.2c29.2-39.1,45.5-79.4,49.6-123.2l0.9-11.3
		c1.4-25,9.5-49.5,18-75.4c7.5-22.8,15.3-46.4,18.1-70.4c1.4-12.2,2.1-24.5,2-36.6c-0.1-12.6-1.1-25-2.9-36.8
		c-3.1-23.7-10.3-46.7-21.5-67.9c-5.9-10.7-13.1-20.7-21.5-29.6c-26.9-28.6-64.1-46-100-62.9l-20.6-9.7
		c-15.4-7.3-30.3-15.9-44.3-25.7c-10.5-7.5-20.5-15.8-29.8-24.8c-9.3-9.1-18.1-18.6-26.3-28.7c-7-8.6-13.9-17.7-20.5-26.5l-2-2.6
		c-11.2-15.5-23.5-30.2-36.8-44c-12.8-13.5-28.2-24.2-45.3-31.6c-17.1-7-35.5-9.9-53.9-8.5c-17.4,0.9-35.5,4.9-53.9,11.8
		c-29.6,10.9-57,28-84.4,46.6"/>
	<path class="st0" d="M305,920.5l6-2.2l6.7-2.4c27.4-9.3,52.7-23.9,74.5-42.9c8.7-7.6,17.5-16.1,28.5-27.7
		c14-14.7,26.2-33.6,38-51.8c7.2-11.1,14.6-22.6,22.4-33.1c7.3-9.9,14-20.1,19.7-30.3c11.3-20.3,19.8-42.1,25.2-64.7
		c3.5-15.3,5.5-30.9,6-46.6c0.5-11.8,2.5-24.7,6.3-39.4c3.3-13.2,7.7-26.6,11.9-39.6c7.7-23.8,15.7-48.4,18.3-73.4
		c2.6-24.2,1.9-48.7-1.9-72.8c-3.5-23.5-11.1-46.2-22.6-67c-6-10.5-13.4-20.3-21.8-29c-26.1-26.9-61.5-43.5-95.8-59.4
		c-8.1-3.8-16.4-7.6-24.4-11.6c-17.2-8.5-31.7-17-44.3-26c-21.1-15.3-40.1-33.2-56.5-53.4c-7.3-8.9-14.5-18-21.4-27.3l-1.3-1.7
		c-11.3-15.5-23.6-30.2-36.9-44.1c-12.8-13.6-28.2-24.5-45.3-32.1c-17.3-7.3-36.1-10.5-54.8-9.4c-17.8,0.7-36.3,4.5-55.1,11.3
		C55.9,54.8,28,71.9,0.1,90.5"/>
	<path class="st0" d="M317.1,920.5c14.3-5.6,28.3-12,41.8-19.4c26-14.5,47.6-34,63.5-49.3c18-18.7,34.3-39.1,48.5-60.8
		c5.1-7.3,10.4-14.8,15.7-22c14.7-20,26.6-41.9,35.5-65c10-26.8,15.3-55,15.7-83.6c0.3-12.3,2.3-25.8,6.1-41.1
		c3.4-13.7,7.9-27.8,12.2-41.3c7.9-24.8,16.1-50.4,18.5-76.5c2.2-24.1,1.3-48.4-2.9-72.2c-2.1-11.6-5.1-23-9-34.2
		c-4-11.5-9-22.2-14.8-31.8c-6.2-10.3-13.7-19.9-22.2-28.4c-12.9-12.5-27.3-23.2-43-31.9c-15.9-8.8-32.2-16.9-48.8-24.3
		c-9.2-4.3-18.8-8.7-27.9-13.2c-15.4-7.6-30.3-16.4-44.3-26.3c-21.2-15.3-40.3-33.2-57-53.3c-7.6-9.2-15.1-18.6-22.3-28.2l-0.7-0.9
		c-12.5-16.4-24-31-37-44.2C231.8,59,216.4,47.9,199.4,40c-14.6-6.3-30.4-9.8-46.3-10.2l-9.3-0.1c-18.2,0.5-37.1,4.1-56.2,10.7
		C56.7,51.2,28.4,68.3,0.1,86.9"/>
	<path class="st0" d="M327.1,920.5c35.7-15.1,68.5-36.2,97.1-62.3c26.2-23.2,48.4-53.7,68.1-80.6c33.6-45,51.8-99.7,51.7-155.9
		c0.4-28.5,9.2-56.3,18.5-85.8c8.1-25.8,16.6-52.6,18.8-79.8c2-24.7,0.7-48.8-3.9-71.7c-5-24.9-13.4-46.8-25-65.2
		c-6.4-10.2-13.9-19.5-22.5-27.9c-24.7-24-57.1-38.8-88.3-53.1c-10.5-4.7-20.8-9.6-31.1-14.7c-15.4-7.7-30.2-16.6-44.3-26.6
		c-21.2-15.3-40.4-33.2-57.3-53.2c-8-9.3-15.7-19.3-23.1-29c-23.3-30.3-47.5-61.5-82.6-77.5c-15.6-6.8-32.3-10.6-49.3-11.1
		c-20.6-0.8-42.6,2.6-65,10.1C57.4,46.9,28.7,63.7,0.1,82.3"/>
	<path class="st0" d="M332.9,920.5c33.2-14.6,64.2-33.7,92.2-56.8c24.5-20,48-45.6,71.9-78.3c24-32.3,40.1-69.6,47.1-109.2
		c3.2-17.6,4.9-35.4,4.8-53.3c0-13.4,2-27.9,5.9-44.6c3.5-14.8,8.2-30,12.8-44.7c8.4-26.9,17-54.7,19-82.9c1.5-23.8-0.1-47.6-5-70.9
		c-4.7-22.8-13.5-44.5-26.1-64.1c-6.6-10-14.3-19.2-22.8-27.2c-12.1-11.1-25.6-20.6-40-28.4c-14.4-8-29.9-15-44.8-21.7
		c-11.3-5.1-23-10.4-34.1-16c-39-19.8-73.7-47-102.3-80.1c-8.3-9.6-16.3-19.9-23.4-29l-0.4-0.5c-11.7-15-23.8-30.6-37.1-44.1
		c-6.5-6.8-13.6-13-21.1-18.7c-7.5-5.7-15.5-10.5-24-14.6c-16.2-7.4-33.8-11.5-51.6-12l-5.7-0.1c-19,0-38.7,3.2-58.6,9.7
		C58,43.1,29,59.8,0.1,78.3"/>
	<path class="st0" d="M339.7,920.5l17-8.2c61.1-30.5,111.5-71.6,145.5-118.9c35.7-49.6,52.8-105.2,52.3-169.9
		c-0.2-30.8,9-60.7,18.8-92.3c8.6-28,17.6-56.9,19.2-86.3c1.7-30.4-2-60.6-10.7-87.3c-8.6-27.9-24.4-53.1-45.7-73.1
		c-23.5-21.4-53.2-34.6-81.9-47.4c-12.2-5.4-24.8-11-36.8-17.2c-38.9-20.2-73.7-47.4-102.6-80.2c-8.6-10.1-17-20.3-25.1-30.8
		c-23.3-29.7-47.3-60.3-81.4-76.7c-17.2-8-35.8-12.4-54.8-12.9c-20.2-0.7-41.8,2.3-63.6,9.1C58.3,38.1,29,54.6,0,72.8"/>
</g>
</svg>
