<?xml version="1.0" encoding="utf-8"?>
<!-- Generator: Adobe Illustrator 24.3.0, SVG Export Plug-In . SVG Version: 6.00 Build 0)  -->
<svg version="1.1" id="Layer_1" xmlns="http://www.w3.org/2000/svg" xmlns:xlink="http://www.w3.org/1999/xlink" x="0px" y="0px"
	 viewBox="0 0 30 30" style="enable-background:new 0 0 30 30;" xml:space="preserve">
<g id="Group_1059" transform="translate(-285.916 -1.823)">
	<path id="Path_1203" d="M306.6,16.9c-0.3-0.1-0.6-0.2-0.4-0.6c0.4-0.7,0.4-1.6,0-2.4c-0.8-1.1-2.9-1.1-5.2,0c0,0-0.8,0.3-0.6-0.3
		c0.4-0.9,0.3-2-0.3-2.8c-1.3-1.3-4.7,0.1-7.7,3.1c-2.2,2.3-3.5,4.6-3.5,6.7c0,4,5,6.6,9.9,6.6c6.4,0,10.6-4,10.6-7
		C309.3,18.6,308.1,17.2,306.6,16.9z M298.8,25.4c-3.9,0.4-7.2-1.4-7.5-4s2.7-5,6.6-5.4c3.9-0.4,7.2,1.4,7.5,3.9
		S302.7,25,298.8,25.4z M312.9,13.7c0-4-3.2-7.2-7.2-7.2c-0.5,0-0.8,0.4-0.8,0.8c0,0.5,0.4,0.8,0.8,0.8c3.1,0,5.5,2.5,5.5,5.5
		c0,0.5,0.4,0.8,0.8,0.8C312.5,14.5,312.9,14.2,312.9,13.7L312.9,13.7z M309.6,13.6c-0.4-1.9-1.9-3.4-3.8-3.8
		c-0.5-0.1-0.9,0.2-1,0.7c-0.1,0.4,0.2,0.9,0.6,1c1.2,0.3,2.2,1.2,2.4,2.4c0.1,0.5,0.5,0.8,1,0.7S309.6,14.1,309.6,13.6
		C309.6,13.6,309.6,13.6,309.6,13.6L309.6,13.6z M296.8,18.6c-1.5,0.2-2.5,1.5-2.4,2.9c0.6,1.5,2.3,2.2,3.8,1.6
		c1.1-0.5,1.9-1.6,1.8-2.8C299.7,19,298.2,18.2,296.8,18.6z"/>
</g>
</svg>
