<?xml version="1.0" encoding="utf-8"?>

<!-- Generator: Adobe Illustrator 25.3.0, SVG Export Plug-In . SVG Version: 6.00 Build 0)  -->
<svg version="1.1" id="Layer_1" xmlns="http://www.w3.org/2000/svg" xmlns:xlink="http://www.w3.org/1999/xlink" x="0px" y="0px"
	 viewBox="0 0 177.9 91.3" style="enable-background:new 0 0 177.9 91.3;" xml:space="preserve">
<style type="text/css">
	.st0{fill:#DA2128;}
	.st1{fill:#6D6E70;}
	.st2{fill:#231F20;}
</style>
<g>
	<g>
		<path class="st0" d="M41.5,77.9C38.4,88,29.6,91.3,22,91.3c-12.5,0-22-5.7-22-23c0-5.1,1.8-21.2,21.2-21.2
			c8.7,0,20.8,3.9,20.8,23.1v2H11.6c0.3,3.2,1,10.3,10.4,10.3c3.2,0,6.6-1.6,7.5-4.6H41.5z M30,65c-0.7-6.8-5.2-8.8-9-8.8
			c-5.5,0-8.4,3.3-9.1,8.8H30z"/>
		<path class="st0" d="M58.6,48.2h7.2v7.9h-7.2v22.8c0,2.4,0.1,3.4,4.8,3.4c0.7,0,1.6-0.1,2.4-0.2v8.4c-1.8,0.1-3.7,0.2-5.5,0.2
			h-1.5c-10,0-11.9-3.6-11.9-9.1V56.1h-6v-7.9h6V36.9h11.6V48.2z"/>
		<path class="st1" d="M109,90.2H97.4V64.7c0-3.1-0.2-8.3-7.6-8.3c-5.2,0-9.1,3.3-9.1,9.7v24.1H69v-42h11.1v6.2h0.2
			c1.6-2.5,4.9-7.3,13.3-7.3c8.6,0,15.4,4.8,15.4,14.1V90.2z"/>
		<path class="st1" d="M153.6,77.9c-3.1,10.1-11.9,13.4-19.4,13.4c-12.5,0-22-5.7-22-23c0-5.1,1.8-21.2,21.2-21.2
			c8.7,0,20.8,3.9,20.8,23.1v2h-30.3c0.3,3.2,1,10.3,10.4,10.3c3.2,0,6.6-1.6,7.5-4.6H153.6z M142.1,65c-0.7-6.8-5.2-8.8-9-8.8
			c-5.5,0-8.4,3.3-9.1,8.8H142.1z"/>
		<path class="st1" d="M170.7,48.2h7.2v7.9h-7.2v22.8c0,2.4,0.1,3.4,4.8,3.4c0.7,0,1.6-0.1,2.4-0.2v8.4c-1.8,0.1-3.7,0.2-5.5,0.2
			H171c-10.1,0-11.9-3.6-11.9-9.1V56.1h-6v-7.9h6V36.9h11.6V48.2z"/>
	</g>
	<g>
		<path class="st2" d="M79.3,21.1l-2.7,1c-0.2-0.6-0.4-1.3-0.6-2c-4.1,0.7-6.9,1.2-8.4,1.7c-0.2-1.3-0.5-2.4-0.8-3.3
			c0.9,0,1.4-0.1,1.6-0.4c0.3-0.4,0.6-0.9,1-1.4c0.8-1,1.5-2.1,2.2-3.3c-1.8,0.1-3.2,0.3-4.1,0.7c-0.2-1.4-0.4-2.5-0.7-3.4
			c0.5-0.1,0.9-0.3,1.2-0.7c0.2-0.4,0.9-1.7,1.9-3.9c1-2.2,1.7-4.2,2.1-5.9l3.5,1.8c-0.6,0.6-2,2.9-4.2,6.9c-0.6,1.1-0.9,1.7-1,1.9
			h3c0.8-1.4,1.6-3,2.3-4.7l3,2.2c-0.3,0.2-2,2.4-5,6.6c-1.5,2-2.4,3.3-2.8,3.8l4.4-0.5c-0.2-0.5-0.6-1.2-1.1-2l2.4-1
			c1.1,1.9,2,3.7,2.7,5.5v-1.7l2.8,0.1h11.3c1.1-0.1,2-0.1,2.6-0.1v2.8l-2.6-0.2h-4.6v5.9h5.7l2.8-0.1V30l-2.9-0.1H81.6L78.9,30
			v-2.8l2.6,0.1H86v-5.9h-3.9l-2.8,0.2V21.1L79.3,21.1z M81.1,1.8h12l3.2-0.2v2.9l-3.4-0.1H81.2l-3.2,0.1V1.6L81.1,1.8L81.1,1.8z
			 M92,4.5l3.3,1.7c-0.1,0.1-0.8,1-2.1,2.9c-0.8,1.3-1.3,2-1.4,2.1c0.6,0.6,2,2.4,4.2,5.4l-3.1,2c-0.5-1.9-1.9-4.2-4.1-6.9
			C90.5,8.9,91.6,6.5,92,4.5L92,4.5z M87,4.6l3.2,1.7c-0.4,0.3-1.6,2.1-3.5,5.5c0.6,0.6,1.9,2.4,3.7,5.2l-2.9,1.8
			c-0.2-1-0.8-2.2-1.7-3.8c-0.9-1.6-1.6-2.6-2.1-3.1C85.2,9.6,86.3,7.2,87,4.6L87,4.6z M81.8,4.6L85,6.3c-0.1,0-0.9,1.1-2.3,3.3
			c-0.9,1.3-1.4,2.1-1.5,2.2c0.6,0.5,1.9,2.3,3.9,5.4l-2.9,1.6c-0.2-0.9-0.8-2.1-1.8-3.7c-1-1.6-1.7-2.6-2.3-3.2
			C79.6,9.7,80.8,7.3,81.8,4.6L81.8,4.6z M74.6,22.9l2.4-0.7c0.7,2.4,1.3,4.5,1.7,6.5l-2.8,0.8C75.7,27.1,75.3,24.8,74.6,22.9
			L74.6,22.9z M68.3,22.7l2.3,0.5c-0.4,3.1-1.1,5.7-1.9,8l-2.5-1C67.3,27.4,68,24.9,68.3,22.7L68.3,22.7z M71.3,23.1l2.3-0.5
			c0.5,3,0.8,5.3,0.9,7L71.6,30C71.7,27.9,71.6,25.6,71.3,23.1L71.3,23.1z"/>
		<path class="st2" d="M118,9.8h1.5v3.9c0,0.9-0.9,1.3-2.6,1.1C117.5,13.4,117.9,11.7,118,9.8L118,9.8z M120,6.3
			c0.5,0.4,0.9,0.8,1.5,1.4H116c-0.4,0-1,0-1.8-0.1v2.2c0.4,0,0.8,0,1.2,0h0.3c0.1,2.7-1.1,5.1-3.7,7c0.8,0.6,1.5,1.2,2.1,1.8
			c1.2-1.3,2.1-2.5,2.7-3.7c0.4,0.6,0.6,1.3,0.6,2.2c1.4,0,2.4-0.1,2.9-0.4c0.5-0.2,0.9-0.6,1.2-1c0.3-0.4,0.4-1,0.4-1.7v-6l1,0.8
			l1.6-1.7L122,5.3h11.2l2,0.1V3L132.9,3h-6.6l-1-3c-0.6,0.2-1.7,0.5-3.3,0.9c0.3,0.4,0.7,1.1,1.2,2.1H115c-0.4,0-1,0-1.7-0.1v2.3
			c0.7-0.1,1.3-0.1,1.7-0.1h6.1L120,6.3L120,6.3z M106.9,3.2c1.6,1,2.9,2.2,3.9,3.7l2.4-2.3c-1.5-1.6-3-2.8-4.5-3.7L106.9,3.2
			L106.9,3.2z M122.9,9.3l0.1,0.9v6.1l-0.1,1.9h2.4l-0.1-1.8V10l1.3-1.4v6.6l-1.1,0.5l1.2,2.3c1-0.6,2.4-1.5,4.4-2.6
			c-0.2-0.3-0.5-0.9-0.8-1.9l-1.4,0.8V9.6l0.6-0.2c0.2,3.2,1.7,5.7,4.5,7.6c0.6-1.1,1.2-2,1.8-2.5c-2-0.6-3.6-2.4-4.8-5.5
			c0.7-0.1,2-0.5,3.9-1c-0.7-0.7-1.5-1.5-2.3-2.2c-1.8,1.2-3.7,2-5.8,2.3l1.7-1.7L126,5.6c-0.2,0.6-0.7,1.5-1.5,2.8l-0.5,0.9H122.9
			L122.9,9.3z M105.4,11.4c1.9,0.7,3.7,1.8,5.2,3.1l1.8-2.7c-1.7-1.3-3.4-2.3-5.3-2.9L105.4,11.4L105.4,11.4z M113.3,31.1
			c2.7-1.2,4.3-3.1,4.9-5.6h11.6v3.3c0,0.4,0,1-0.1,1.7h2.8c0-0.6-0.1-1.1-0.1-1.6V18.3l0.2-1.8h-3l0.1,1.3v1.6h-11l0.1-1.7h-3
			l0.1,1.7c0.2,3.3-0.1,5.6-0.9,6.9c-0.8,1.3-2.1,2.1-3.8,2.6C112.1,29.3,112.8,30,113.3,31.1L113.3,31.1z M129.8,21.6v1.8h-11.3
			c0.1-0.8,0.1-1.4,0.1-1.8H129.8L129.8,21.6z M105.8,28l3.5,1.9c1.3-4.4,2-8.1,2.3-11.3l-2.6-1.4C108.2,22,107.1,25.6,105.8,28
			L105.8,28z"/>
		<path class="st2" d="M159.8,11.1v2.6h-4.7v-2.6H159.8L159.8,11.1z M147,1.1l-2.7,1.2c1.3,1.7,2.2,3.4,2.6,5c0,0,0,0,0,0
			c0,0,0.1-0.1,0.2-0.2c0.1-0.1,0.2-0.1,0.3-0.2c0.1-0.1,0.3-0.2,0.5-0.3c0.2-0.1,0.5-0.2,0.7-0.3c0.3-0.1,0.6-0.2,0.9-0.3
			C149.2,5,148.4,3.3,147,1.1L147,1.1z M165.1,3.9l-3.7,2.8c-1.1-1-2-1.7-2.7-2.1L157,6.1c1.3,0.9,2.2,1.8,3,2.6h-5.2l-2.4-0.2
			l0.2,2.4v11.8l-0.1,2.8h2.9l-0.1-2.4V21h4.7v2.4c0,0.5,0,1.3-0.1,2.5h2.9c-0.1-1.2-0.1-2.1-0.1-2.5V21h5.2v1.6
			c0,0.2-0.1,0.3-0.3,0.5c-0.2,0.1-0.4,0.2-0.7,0.2c-0.2,0-0.5,0.1-0.9,0.1c-0.2,0-0.7,0-1.3-0.1h0h0l0.5,0.5c0.3,0.3,0.5,0.7,0.6,1
			c0.1,0.3,0.2,0.5,0.2,0.8c0,0.3,0,0.5,0,0.6c3.1-0.1,4.7-1,4.7-2.7V11l0.1-2.4l-2.5,0.2h-5.2c4-3.5,6.6-5.9,7.9-7.3l-2.6,0.1
			h-13.1l-2.7-0.1v2.7l2.8-0.1H165.1L165.1,3.9z M167.7,11.1v2.6h-5.2v-2.6H167.7L167.7,11.1z M167.7,15.9v2.7h-5.2v-2.7H167.7
			L167.7,15.9z M159.8,15.9v2.7h-4.7v-2.7H159.8L159.8,15.9z M157.5,26.9c-1.6,0-3.3-0.2-5.1-0.7c-1.7-0.4-3.1-1.1-4-1.9
			c0.9-1.8,1.6-3.5,2.1-4.9l0.2-0.5c0.6-1.7,1-2.7,1.1-3l-1.3,0.2h-3.1c0.1-0.2,0.3-0.6,0.6-1.2c1.1-2,1.9-3.6,2.4-4.7
			c0.1-0.2,0.2-0.5,0.4-1c0.3-0.6,0.4-1,0.5-1.4l-2.1,0.2l-3.9,0l-2.6-0.1v3l2.3-0.1l2,0c-1.2,2.9-2.4,4.9-3.5,5.8
			c0.3,0.9,0.4,1.6,0.4,2.1l3.8,0c-0.2,1-0.7,2.1-1.4,3.5c-0.7,1.4-1.4,2.4-2,3c-0.6,0.6-1.5,1.3-2.7,2c0.8,0.7,1.5,1.6,1.9,2.8
			c1.4-1.1,2.5-2.3,3.5-3.7c0.6,0.6,1.7,1.2,3.2,1.9c1.5,0.7,3,1.1,4.5,1.3c1.5,0.2,3.8,0.3,6.8,0.3c1.6,0,5-0.1,10-0.2
			c0.1-1,0.1-1.7,0.1-2.1c0-0.6,0.3-1.3,0.9-2.1C168,26.5,162.9,26.9,157.5,26.9L157.5,26.9z"/>
	</g>
</g>
</svg>



