<?xml version="1.0" encoding="utf-8"?>
<!-- Generator: Adobe Illustrator 28.0.0, SVG Export Plug-In . SVG Version: 6.00 Build 0)  -->
<svg version="1.1" id="Layer_1" xmlns="http://www.w3.org/2000/svg" xmlns:xlink="http://www.w3.org/1999/xlink" x="0px" y="0px"
	 viewBox="0 0 258.8 91.3" style="enable-background:new 0 0 258.8 91.3;" xml:space="preserve">
<style type="text/css">
	.st0{fill:#DA2128;}
	.st1{fill:#6D6E70;}
	.st2{fill:#231F20;}
</style>
<g>
	<g>
		<g>
			<g>
				<path class="st0" d="M30.9,73.6c-2.3,7.5-8.9,10-14.5,10C7.1,83.6,0,79.3,0,66.5c0-3.8,1.4-15.8,15.8-15.8
					c6.5,0,15.5,2.9,15.5,17.2v1.5H8.7c0.2,2.4,0.7,7.6,7.7,7.6c2.4,0,4.9-1.2,5.6-3.4H30.9z M22.4,64c-0.5-5.1-3.9-6.6-6.7-6.6
					c-4.1,0-6.3,2.5-6.7,6.6H22.4z"/>
				<path class="st0" d="M43.7,51.4H49v5.9h-5.4v17c0,1.8,0.1,2.5,3.6,2.5c0.6,0,1.2-0.1,1.8-0.1V83c-1.4,0.1-2.7,0.1-4.1,0.1h-1.1
					c-7.5,0-8.9-2.7-8.9-6.8v-19h-4.5v-5.9H35V43h8.7V51.4z"/>
				<path class="st1" d="M81.2,82.7h-8.7v-19c0-2.3-0.1-6.2-5.6-6.2c-3.8,0-6.8,2.5-6.8,7.2v17.9h-8.7V51.4h8.3V56h0.1
					c1.2-1.9,3.7-5.4,9.9-5.4c6.4,0,11.5,3.6,11.5,10.5V82.7z"/>
				<path class="st1" d="M114.5,73.6c-2.3,7.5-8.9,10-14.5,10c-9.3,0-16.4-4.2-16.4-17.1c0-3.8,1.4-15.8,15.8-15.8
					c6.5,0,15.5,2.9,15.5,17.2v1.5H92.3C92.5,71.7,93,77,100,77c2.4,0,4.9-1.2,5.6-3.4H114.5z M106,64c-0.5-5.1-3.9-6.6-6.7-6.6
					c-4.1,0-6.3,2.5-6.7,6.6H106z"/>
				<path class="st1" d="M127.3,51.4h5.4v5.9h-5.4v17c0,1.8,0.1,2.5,3.6,2.5c0.6,0,1.2-0.1,1.8-0.1V83c-1.4,0.1-2.7,0.1-4.1,0.1
					h-1.1c-7.5,0-8.9-2.7-8.9-6.8v-19h-4.5v-5.9h4.5V43h8.7V51.4z"/>
			</g>
			<g>
				<path class="st2" d="M59.1,31.2L57,32c-0.1-0.5-0.3-1-0.5-1.5c-3,0.5-5.1,0.9-6.3,1.2c-0.2-1-0.4-1.8-0.6-2.5
					c0.7,0,1.1-0.1,1.2-0.3c0.2-0.3,0.4-0.6,0.7-1.1c0.6-0.8,1.1-1.6,1.6-2.4c-1.4,0-2.4,0.2-3,0.5c-0.1-1-0.3-1.9-0.5-2.6
					c0.4-0.1,0.7-0.3,0.9-0.5c0.2-0.3,0.7-1.3,1.4-2.9c0.8-1.7,1.3-3.1,1.6-4.4l2.6,1.3c-0.5,0.5-1.5,2.2-3.1,5.1
					c-0.4,0.8-0.7,1.3-0.8,1.4h2.3c0.6-1.1,1.2-2.2,1.7-3.5l2.3,1.6c-0.2,0.1-1.5,1.8-3.7,4.9c-1.1,1.5-1.8,2.5-2.1,2.9l3.3-0.4
					c-0.1-0.4-0.4-0.9-0.8-1.5l1.8-0.8c0.8,1.4,1.5,2.7,2,4.1v-1.3l2.1,0.1h8.5c0.8-0.1,1.5-0.1,2-0.1v2.1l-2-0.1h-3.4v4.4h4.2
					l2.1-0.1v2.1l-2.2-0.1h-9.6l-2,0.1v-2.1l2,0.1h3.4v-4.4h-2.9l-2.1,0.1V31.2L59.1,31.2z M60.4,16.8h8.9l2.4-0.1v2.2l-2.5-0.1
					h-8.8l-2.4,0.1v-2.2L60.4,16.8L60.4,16.8z M68.6,18.9l2.5,1.3c-0.1,0-0.6,0.8-1.6,2.2c-0.6,0.9-1,1.5-1.1,1.6
					c0.5,0.5,1.5,1.8,3.1,4l-2.3,1.5c-0.4-1.4-1.4-3.1-3.1-5.1C67.5,22.1,68.3,20.3,68.6,18.9L68.6,18.9z M64.8,18.9l2.4,1.3
					c-0.3,0.2-1.2,1.6-2.6,4.1c0.5,0.5,1.4,1.8,2.8,3.9l-2.2,1.3c-0.2-0.7-0.6-1.7-1.2-2.9c-0.6-1.2-1.2-2-1.6-2.3
					C63.5,22.6,64.3,20.9,64.8,18.9L64.8,18.9z M61,18.9l2.4,1.3c-0.1,0-0.7,0.8-1.7,2.4c-0.7,1-1,1.6-1.1,1.6
					c0.5,0.4,1.4,1.7,2.9,4l-2.1,1.2c-0.2-0.7-0.6-1.6-1.3-2.8c-0.7-1.2-1.3-2-1.7-2.4C59.3,22.7,60.2,20.9,61,18.9L61,18.9z
					 M55.6,32.6l1.8-0.5c0.5,1.8,1,3.4,1.3,4.8l-2.1,0.6C56.5,35.7,56.1,34,55.6,32.6L55.6,32.6z M50.9,32.4l1.7,0.3
					c-0.3,2.3-0.8,4.3-1.4,5.9L49.4,38C50.2,35.9,50.7,34,50.9,32.4L50.9,32.4z M53.2,32.7l1.7-0.3c0.4,2.2,0.6,4,0.6,5.2l-2.1,0.3
					C53.4,36.3,53.4,34.5,53.2,32.7L53.2,32.7z"/>
				<path class="st2" d="M88,22.8H89v2.9c0,0.7-0.7,0.9-2,0.8C87.6,25.4,87.9,24.2,88,22.8L88,22.8z M89.4,20.2
					c0.3,0.3,0.7,0.6,1.1,1h-4.1c-0.3,0-0.8,0-1.4,0v1.6c0.3,0,0.6,0,0.9,0h0.2c0.1,2-0.8,3.8-2.8,5.2c0.6,0.4,1.1,0.9,1.6,1.4
					c0.9-0.9,1.6-1.8,2-2.7c0.3,0.5,0.5,1,0.5,1.6c1.1,0,1.8-0.1,2.2-0.3c0.4-0.2,0.7-0.4,0.9-0.7c0.2-0.3,0.3-0.7,0.3-1.3v-4.4
					l0.8,0.6l1.2-1.2l-1.9-1.6h8.3l1.5,0.1v-1.7l-1.6,0h-5l-0.7-2.3c-0.4,0.2-1.3,0.4-2.4,0.7c0.2,0.3,0.5,0.8,0.9,1.6h-6.1
					c-0.3,0-0.7,0-1.3,0v1.7c0.6,0,1-0.1,1.3-0.1h4.5L89.4,20.2L89.4,20.2z M79.7,17.9c1.2,0.7,2.1,1.6,2.9,2.8l1.8-1.7
					c-1.1-1.2-2.2-2.1-3.4-2.8L79.7,17.9L79.7,17.9z M91.6,22.4l0,0.7v4.5l0,1.4h1.8l-0.1-1.3v-4.8l1-1.1v5l-0.8,0.4l0.9,1.7
					c0.7-0.4,1.8-1.1,3.3-2c-0.2-0.2-0.4-0.7-0.6-1.4l-1,0.6v-3.5l0.5-0.1c0.1,2.4,1.3,4.3,3.3,5.7c0.4-0.8,0.9-1.5,1.3-1.9
					c-1.5-0.4-2.7-1.8-3.6-4.1c0.5-0.1,1.5-0.3,2.9-0.7c-0.5-0.5-1.1-1.1-1.7-1.7c-1.3,0.9-2.8,1.5-4.3,1.7l1.3-1.3l-2-0.6
					c-0.1,0.4-0.5,1.1-1.1,2.1l-0.4,0.7H91.6L91.6,22.4z M78.5,24c1.4,0.5,2.7,1.3,3.8,2.3l1.3-2c-1.2-1-2.5-1.7-3.9-2.2L78.5,24
					L78.5,24z M84.5,38.7c2-0.9,3.2-2.3,3.6-4.2h8.7V37c0,0.3,0,0.7-0.1,1.2h2.1c0-0.5-0.1-0.9-0.1-1.2v-7.9l0.2-1.3h-2.2l0.1,0.9
					V30h-8.2l0.1-1.2h-2.2l0.1,1.3c0.1,2.5-0.1,4.2-0.7,5.2c-0.6,1-1.6,1.6-2.8,1.9C83.6,37.3,84.1,37.9,84.5,38.7L84.5,38.7z
					 M96.8,31.6V33h-8.4c0.1-0.6,0.1-1.1,0.1-1.4H96.8L96.8,31.6z M78.8,36.3l2.6,1.4c0.9-3.3,1.5-6.1,1.7-8.4l-1.9-1
					C80.7,31.9,79.9,34.5,78.8,36.3L78.8,36.3z"/>
				<path class="st2" d="M119.1,23.7v1.9h-3.5v-1.9H119.1L119.1,23.7z M109.6,16.3l-2,0.9c1,1.3,1.6,2.5,1.9,3.8c0,0,0,0,0,0
					c0,0,0.1-0.1,0.1-0.1c0.1,0,0.1-0.1,0.3-0.2c0.1-0.1,0.2-0.2,0.4-0.2c0.2-0.1,0.3-0.2,0.5-0.2c0.2-0.1,0.4-0.1,0.7-0.2
					C111.2,19.2,110.6,17.9,109.6,16.3L109.6,16.3z M123,18.4l-2.7,2.1c-0.8-0.7-1.5-1.3-2-1.6L117,20c0.9,0.7,1.7,1.3,2.2,2h-3.9
					l-1.8-0.1l0.1,1.8v8.8l-0.1,2.1h2.2l-0.1-1.8v-1.6h3.5v1.8c0,0.4,0,1-0.1,1.9h2.2c-0.1-0.9-0.1-1.6-0.1-1.9v-1.8h3.9v1.2
					c0,0.1-0.1,0.2-0.2,0.3c-0.1,0.1-0.3,0.1-0.5,0.1c-0.2,0-0.4,0.1-0.7,0.1c-0.2,0-0.5,0-0.9-0.1h0h0l0.4,0.4
					c0.2,0.3,0.4,0.5,0.5,0.7c0.1,0.2,0.1,0.4,0.1,0.6c0,0.2,0,0.3,0,0.5c2.3-0.1,3.5-0.8,3.5-2v-9.3l0.1-1.8l-1.8,0.1h-3.9
					c3-2.6,4.9-4.4,5.9-5.5l-1.9,0.1h-9.8l-2-0.1v2l2.1-0.1H123L123,18.4z M125,23.7v1.9h-3.9v-1.9H125L125,23.7z M125,27.4v2h-3.9
					v-2H125L125,27.4z M119.1,27.4v2h-3.5v-2H119.1L119.1,27.4z M117.4,35.6c-1.2,0-2.5-0.2-3.8-0.5c-1.3-0.3-2.3-0.8-3-1.4
					c0.7-1.4,1.2-2.6,1.5-3.6l0.1-0.4c0.5-1.3,0.7-2,0.8-2.2l-1,0.2h-2.3c0.1-0.1,0.2-0.4,0.5-0.9c0.8-1.5,1.4-2.7,1.8-3.5
					c0-0.2,0.1-0.4,0.3-0.7c0.2-0.4,0.3-0.8,0.4-1l-1.6,0.1l-2.9,0l-1.9-0.1v2.3l1.7-0.1l1.5,0c-0.9,2.2-1.8,3.6-2.6,4.4
					c0.2,0.7,0.3,1.2,0.3,1.6l2.9,0c-0.1,0.7-0.5,1.6-1,2.6c-0.5,1-1,1.8-1.5,2.3c-0.4,0.5-1.1,1-2,1.5c0.6,0.5,1.1,1.2,1.4,2.1
					c1-0.8,1.9-1.7,2.6-2.7c0.5,0.4,1.3,0.9,2.4,1.4c1.1,0.5,2.3,0.8,3.4,1c1.1,0.2,2.8,0.2,5.1,0.2c1.2,0,3.7,0,7.4-0.1
					c0.1-0.7,0.1-1.2,0.1-1.6c0-0.4,0.2-1,0.6-1.6C125.2,35.2,121.4,35.6,117.4,35.6L117.4,35.6z"/>
			</g>
		</g>
		<g>
			<g>
				<g>
					<path class="st1" d="M197.7,90.1c-1.1,0.7-2.7,1.1-4.9,1.2v-2.6c1,0,1.8-0.1,2.4-0.3c0.6-0.2,1.1-0.5,1.4-0.8
						c0.3-0.3,0.5-0.8,0.7-1.3l0.3-0.9h-1.8l-4-9.6h3.3l3,7.7l2.2-7.7h3.4L200,86.9C199.6,88.4,198.8,89.4,197.7,90.1z"/>
					<path class="st1" d="M214.5,86.1c-1,0.6-2.5,0.9-3.8,0.9c-4.3,0-6.6-2.2-6.6-5.9c0-3.7,2.1-5.7,5.6-5.7c3.4,0,5.6,2,5.6,5.7
						c0,0.2,0,0.5,0,0.9h-7.9c0.3,1.7,1.4,2.6,3.4,2.6c1.4,0,2.7-0.4,3.8-1.2V86.1z M212.2,79.7c-0.3-1.4-1.3-2-2.5-2
						c-1.1,0-2,0.7-2.3,2H212.2z"/>
					<path class="st1" d="M216.5,81.2c0-3.4,2-5.8,5-5.8c0.9,0,1.9,0.4,2.7,1v-0.7h3.3v8.4c0,1.1,0.1,2,0.4,2.6h-3.1
						c-0.1-0.2-0.2-0.4-0.2-0.7c-0.8,0.7-1.8,1-3,1C218.5,86.9,216.5,84.7,216.5,81.2z M222.3,84.6c0.7,0,1.6-0.2,2.2-1.1v-4.6
						c-0.6-1-1.5-1.1-2.2-1.1c-1.4,0-2.7,1.5-2.7,3.4C219.6,83.1,220.8,84.6,222.3,84.6z"/>
					<path class="st1" d="M232.7,75.7v1.2c0.7-0.8,1.8-1.2,2.7-1.2c0.3,0,0.7,0,1,0.1v2.5c-0.4-0.1-0.7-0.1-1.1-0.1
						c-1,0-2,0.3-2.6,1.1v7.4h-3.3v-11H232.7z"/>
					<path class="st1" d="M237.5,85.9V83c1.1,0.8,2.9,1.4,4.1,1.3c0.8-0.1,1.2-0.4,1.2-0.8c0.1-0.8-0.3-1.2-1.8-1.6
						c-0.8-0.2-1.5-0.5-2-0.8c-1-0.6-1.5-1.3-1.5-2.5c0-1.8,1.5-3.3,4.3-3.3c1.2,0,2.6,0.2,3.4,0.6v2.6c-0.9-0.4-2.2-0.8-3.1-0.8
						c-0.9,0-1.4,0.2-1.5,0.7c-0.1,0.6,0.6,1,1.7,1.3c0.8,0.3,1.5,0.5,2,0.8c1,0.5,1.7,1.4,1.7,2.7c0,2-1.6,3.4-3.8,3.5
						C240.5,87,238.7,86.6,237.5,85.9z"/>
				</g>
				<g>
					<path class="st0" d="M195.6,58c0,0.2,0,0.4,0,0.5c-0.1,6.9-2.7,12.8-7.7,17.8c-5.1,5-11.2,7.6-18.4,7.6
						c-6.1,0-11.4-1.9-16.1-5.6c-4.7-3.8-7.7-8.7-9.3-14.7l11.6-3c0.9,3.3,2.6,6,5.1,8.2c2.5,2.1,5.4,3.2,8.7,3.2
						c3.8,0,7.1-1.4,9.9-4.1c2.8-2.8,4.2-6.1,4.2-9.9c0-3.8-1.4-7.1-4.2-9.9c-2.8-2.8-6.1-4.2-9.9-4.2h-6V32h6c2.7,0,5.1-1,7-2.9
						c2-2,3-4.4,3-7.1s-1-5.1-3-7c-2-2-4.3-3-7-3c-5.2,0-8.5,2.8-9.9,8.4L148,17.3c1.3-5,4-9.2,7.9-12.4c3.9-3.2,8.5-4.9,13.6-4.9
						c6.1,0,11.2,2.2,15.5,6.5c4.3,4.3,6.5,9.5,6.5,15.5c0,6.6-2.6,11.8-7.8,15.6c3.4,1.9,6,4.3,7.9,7
						C194.3,48.3,195.6,52.8,195.6,58z"/>
				</g>
			</g>
			<path class="st2" d="M242.7,23.4c0,0-0.1,0.1-0.1,0.1c-0.1-0.1-0.2-0.3-0.4-0.4c0,0,0.1-0.1,0.1-0.1
				C242.5,23.2,242.6,23.3,242.7,23.4z"/>
			<path class="st0" d="M242.6,23.5c-0.1-0.1-0.2-0.3-0.4-0.4c0,0,0.1-0.1,0.1-0.1c0.1,0.1,0.2,0.2,0.3,0.4
				C242.7,23.5,242.6,23.5,242.6,23.5z M235.6,41c0.2,0.9,0.3,1.9,0.3,2.9c0,2.5-0.6,4.9-1.8,7c-3.3,6.2-12.7,5.2-14.1-1.7
				c0-0.2-0.1-0.4-0.1-0.6c-0.4-3.4,5.5-8.3,12-14.2c0.1-0.1,0.2-0.1,0.3-0.2c12.8-13.1,26.5-22.6,26.5-22.6
				c-8.2,2.1-15.2,4.8-21.1,7.8c-5.1-3.4-11.4-5.3-18.1-4.9c-14.3,0.8-27,13.5-27.8,27.8c0,0.8-0.1,1.5,0,2.3c0,0.1,0,0.1,0.1,0.2
				c2.6,3.7,3.8,8.1,3.8,13.3c0,0.2,0,0.4,0,0.5c5.3,9.3,15.5,15.4,27.1,14.8c15.1-0.7,27.3-13,28-28.1c0.3-5.8-1.1-11.2-3.7-15.8
				C243.4,33.1,239.2,37,235.6,41z M207.5,46.9c-0.2,0.3-0.6,0.3-0.7-0.1c-0.4-2-0.4-4.1,0.1-6.3c1.4-6.6,7.3-11.2,14.1-11.4
				c0.5,0,1,0,1.5,0c0.3,0,0.5,0.5,0.2,0.7C216.3,34.7,210.7,40.4,207.5,46.9z"/>
			<path class="st2" d="M242.7,23.4c0,0-0.1,0.1-0.1,0.1c-0.1-0.1-0.2-0.3-0.4-0.4c0,0,0.1-0.1,0.1-0.1
				C242.5,23.2,242.6,23.3,242.7,23.4z"/>
		</g>
	</g>
</g>
</svg>
