<?xml version="1.0" encoding="utf-8"?>
<!-- Generator: Adobe Illustrator 28.0.0, SVG Export Plug-In . SVG Version: 6.00 Build 0)  -->
<svg version="1.1" id="Layer_1" xmlns="http://www.w3.org/2000/svg" xmlns:xlink="http://www.w3.org/1999/xlink" x="0px" y="0px"
	 viewBox="0 0 180 56.36" style="enable-background:new 0 0 180 56.36;" xml:space="preserve">
<style type="text/css">
	.st0{opacity:0.1;}
	.st1{fill:#0068E8;}
	.st2{fill:#4DFFFF;}
	.st3{fill:url(#SVGID_1_);}
</style>
<g class="st0">
	<polygon class="st1" points="5.21,39.32 2.57,36.67 2.57,2.85 5.21,0.2 70.91,0.2 76.84,4.79 173.63,4.79 177.43,8.3 177.43,36.67 
		174.79,39.32 	"/>
	<g>
		<path class="st2" d="M174.87,39.52H5.13l-2.76-2.76v-34L5.13,0H71l5.93,4.59h96.79l3.92,3.63v28.54L174.87,39.52z M5.3,39.11
			h169.41l2.52-2.52V8.38L173.55,5H76.76l-5.93-4.59H5.29L2.77,2.93v33.66L5.3,39.11z"/>
	</g>
</g>
<linearGradient id="SVGID_1_" gradientUnits="userSpaceOnUse" x1="90" y1="37.6976" x2="90" y2="57.0786">
	<stop  offset="0" style="stop-color:#00FA9A"/>
	<stop  offset="0.0826" style="stop-color:#00D48E;stop-opacity:0.9174"/>
	<stop  offset="0.1931" style="stop-color:#00A77F;stop-opacity:0.8069"/>
	<stop  offset="0.3086" style="stop-color:#008173;stop-opacity:0.6914"/>
	<stop  offset="0.4277" style="stop-color:#006269;stop-opacity:0.5723"/>
	<stop  offset="0.5517" style="stop-color:#004A61;stop-opacity:0.4483"/>
	<stop  offset="0.6825" style="stop-color:#00395B;stop-opacity:0.3175"/>
	<stop  offset="0.8248" style="stop-color:#002F58;stop-opacity:0.1752"/>
	<stop  offset="1" style="stop-color:#002C57;stop-opacity:0"/>
</linearGradient>
<rect x="2.36" y="39.52" class="st3" width="175.27" height="16.84"/>
</svg>
